/* XPM */
static char *_93fda1f76c9495dc12c876e56f02a68EE11MvLp5QSqKxpi[] = {
/* columns rows colors chars-per-pixel */
"64 64 256 2 ",
"   c #010203",
".  c #0B0504",
"X  c #070804",
"o  c #0A0906",
"O  c #000609",
"+  c #010A0B",
"@  c #0C0D0A",
"#  c #160604",
"$  c #130D0B",
"%  c #1C0D0B",
"&  c #0D130B",
"*  c #12110D",
"=  c #1A140E",
"-  c #010F10",
";  c #021413",
":  c #031B17",
">  c #141512",
",  c #1B1513",
"<  c #161915",
"1  c #1A1A15",
"2  c #171A19",
"3  c #1C1D1A",
"4  c #240303",
"5  c #270807",
"6  c #2C0B0B",
"7  c #360A09",
"8  c #26130E",
"9  c #36110F",
"0  c #291613",
"q  c #231915",
"w  c #241D1A",
"e  c #2C1D1A",
"r  c #351714",
"t  c #3B1514",
"y  c #341C1A",
"u  c #3C1C1B",
"i  c #04231D",
"p  c #192219",
"a  c #1F211D",
"s  c #0D3013",
"d  c #2D2C0F",
"f  c #202016",
"g  c #23221E",
"h  c #2B221E",
"j  c #37231D",
"k  c #2C1D20",
"l  c #042C24",
"z  c #182F2D",
"x  c #04342A",
"c  c #033A2D",
"v  c #043D32",
"b  c #252522",
"n  c #2B2522",
"m  c #262825",
"M  c #2A2925",
"N  c #2D2C29",
"B  c #332522",
"V  c #3C2523",
"C  c #322925",
"Z  c #362B29",
"A  c #293427",
"S  c #32312D",
"D  c #3C352F",
"F  c #393936",
"G  c #460B07",
"H  c #560F08",
"J  c #47130A",
"K  c #491A17",
"L  c #431D1B",
"P  c #561B19",
"I  c #68190A",
"U  c #6D1A0E",
"Y  c #49221E",
"T  c #562F14",
"R  c #5B231C",
"E  c #6F2A0E",
"W  c #66221B",
"Q  c #7A271A",
"!  c #491F21",
"~  c #442423",
"^  c #4C2524",
"/  c #462927",
"(  c #532523",
")  c #5B2624",
"_  c #532926",
"`  c #552C2A",
"'  c #592C2A",
"]  c #4C352E",
"[  c #483C39",
"{  c #682924",
"}  c #742C24",
"|  c #6E362E",
" . c #2B6117",
".. c #024C27",
"X. c #044234",
"o. c #065835",
"O. c #125639",
"+. c #304D32",
"@. c #036339",
"#. c #474539",
"$. c #544939",
"%. c #4D5230",
"&. c #754E32",
"*. c #527033",
"=. c #3C3E41",
"-. c #643C43",
";. c #0B5643",
":. c #345D51",
">. c #066645",
",. c #0E7351",
"<. c #336850",
"1. c #4B4C4A",
"2. c #564944",
"3. c #53554C",
"4. c #6E534D",
"5. c #516A50",
"6. c #6C6C4E",
"7. c #78655C",
"8. c #585E6D",
"9. c #4E7366",
"0. c #6A6866",
"q. c #72736E",
"w. c #983609",
"e. c #882F14",
"r. c #892B18",
"t. c #983519",
"y. c #A43A15",
"u. c #833228",
"i. c #993823",
"p. c #AA3D21",
"a. c #A74419",
"s. c #B54D11",
"d. c #B54B19",
"f. c #934626",
"g. c #A84524",
"h. c #B04D26",
"j. c #A65D26",
"k. c #BB5925",
"l. c #C7570E",
"z. c #C65A19",
"x. c #D1690E",
"c. c #D56817",
"v. c #DC7716",
"b. c #E4771B",
"n. c #C65A22",
"m. c #CC692D",
"M. c #D66B22",
"N. c #E67821",
"B. c #8D574E",
"V. c #A35850",
"C. c #8D6F56",
"Z. c #B16E4E",
"A. c #887567",
"S. c #8E736D",
"D. c #AD796D",
"F. c #C77E59",
"G. c #33A206",
"H. c #5CA230",
"J. c #58DC2C",
"K. c #028557",
"L. c #08956B",
"P. c #509449",
"I. c #778A53",
"U. c #729351",
"Y. c #59B051",
"T. c #69B058",
"R. c #548D6D",
"E. c #708973",
"W. c #73B366",
"Q. c #70D74F",
"!. c #75D46B",
"~. c #73E770",
"^. c #7DFD76",
"/. c #B1862A",
"(. c #D98C1A",
"). c #E8861D",
"_. c #E8901F",
"`. c #D7902A",
"'. c #F09127",
"]. c #F6AC36",
"[. c #8BD53B",
"{. c #8B875A",
"}. c #99A556",
"|. c #AEAE59",
" X c #8E8E6B",
".X c #989A74",
"XX c #AA9077",
"oX c #92AC6F",
"OX c #ADAF74",
"+X c #D9A75E",
"@X c #F7BB44",
"#X c #C5926F",
"$X c #C7B870",
"%X c #9EC85E",
"&X c #82FC57",
"*X c #8ED36E",
"=X c #AACC71",
"-X c #88EF6A",
";X c #89E976",
":X c #99E978",
">X c #88FC7A",
",X c #94F879",
"<X c #A8ED7A",
"1X c #F7CA54",
"2X c #CAD169",
"3X c #CACD75",
"4X c #F3D76A",
"5X c #F1F079",
"6X c #677783",
"7X c #9A7987",
"8X c #788E89",
"9X c #8E918E",
"0X c #9B9897",
"qX c #B1998B",
"wX c #98A98C",
"eX c #ADAC8B",
"rX c #978BA3",
"tX c #A89BA8",
"yX c #B697AA",
"uX c #99A8A5",
"iX c #AEA9AD",
"pX c #B5AAAA",
"aX c #CB9B91",
"sX c #CFAB94",
"dX c #CAB4BA",
"fX c #EBBBA0",
"gX c #B0D589",
"hX c #AFDF9A",
"jX c #8AFD82",
"kX c #96FC85",
"lX c #A6FB8A",
"zX c #B2F38D",
"xX c #A8FD91",
"cX c #D0D18D",
"vX c #CAF191",
"bX c #FBFD87",
"nX c #F3EE91",
"mX c #E9DDA5",
"MX c #F4F6AC",
"NX c #B4AFC6",
"BX c #C9B9C5",
"VX c #CFB4C8",
"CX c #C9C4C7",
"ZX c #D7CFD3",
"AX c #E5CAD5",
"SX c #E7D5D9",
"DX c #E6D9DC",
"FX c #E9DADD",
"GX c #EDEECD",
"HX c #E8D9E5",
"JX c #F2D8E8",
"KX c #EEE8E7",
"LX c #F5E5EA",
"PX c #FAEAF5",
"IX c #FCF4F8",
"UX c #FFFDFE",
/* pixels */
"F S N N S S Z Z V ~ ~ ^ _ ^ ^ ' ' ' ' ' _ ^ _ ^ L ~ _ ^ ' ' _ ' ' ' ' ' `  X6.$.2.j 0 5 8 8 % q q , 3 w * X o @ > 3 b M M M b g ",
"b M M m m n n B B V Y ~ ^ Y ^ _ _ _ ( ^ Y Y ^ ~ u L Y P _ ) ) ) ) ) ) _ .X3XMX.X7.] 0 5 5 5 # 8 = $ , , * @ @ > < 2 1 b b g 3 1 ",
"b m M b 3 3 h n B V ~ ^ ^ ^ ( _ _ _ ( ( ^ ^ ^ ^ L L P ( ) { { { { { {  XU.}.OXOX X$.e 5 5 5 # 8 % $ $ $ * 1 > b b > * a b g 3 3 ",
"a b b 3 * * w n B V / ^ ^ _ _ _ _ _ ( _ ( ( ( ( P K P R P W { { { { tXpXVXBXBXBXBX9X5.%./ e % % % # $ , q g g N M 1 > 3 3 g 3 3 ",
"3 a a > X X 1 n h j V ~ ^ _ _ _ _ ( ( _ ( ( ( ) .XgXvX=XoX.X0XVXHXPXIXPXPXLXLXLXIXPXVXE.H.H.#.8 % % q h n C M N n b g 1 1 g 3 b ",
"3 > > @ X X $ q q e y y ~ ^ _ _ _ _ ( ( _ .XeXeXcXcXOX XtXHXIXPXJXSXSXFXFXFXFXSXSXHXIXAXE.G.H.#.Z h h C C C C M b N M > 1 b b N ",
"2 @ @ o @ X o = , q e r L ~ ^ ^ ( ( ( ^ ( OXMXnXOX XtXHXIXLXSXSXFXFXFXFXFXFXFXFXFXFXLXPXdXU.H.I.7.4.[ C C M M g g M m * 1 b b M ",
"> X o @ * & $ * , e y y u u r L 7.A.A.7..XcXcX6.F rXPXIXFXSXSXLXPXLXFXSXFXFXFXFXFXSXHXLXHXpXoX<X<XoX0.D w w q > 2 3 1 o * 1 3 g ",
"@ o * 2 < 1 1 , q h B j u 9 6 6 t 7. X3XbX3X9XyXAXLXLXDXHXIXIXpX0.9XDXPXHXDXFXFXFXFXFXKXJXVXoX!.,XOXq.F , $ $ @ * @ X X X @ > 2 ",
"> > 1 g 3 b g , w e e y r 9 6 4 9 7.{.3X4XqXrX6X:.0.CXIXLXSXZXdX0XpXFXLXHXDXFXFXFXHXFXHXPXSXwXY.-XgX6., . . . . X . X o * * * > ",
"g g b b b b g , 1 q 0 0 r r r 6 r A.OX2XsXtX9.....9XLXIX0X+.0.ZXUXPXLXFXDXFXFXFXFXLXPXLXPXHXuXT.;XvXI.= $ . o o o o o > 1 1 > 1 ",
"N b b b 3 2 , $ , , 0 e y j j 4.7..X=X$XVXiX,.o.9XJXUXIXAXyXq.<...:.iXIXUXLXFXLXHXpX0XCXIXJXtXT.;XvXI.% = 1 , 1 1 > > w g 3 1 3 ",
"S b 3 3 1 * $ $ * q h B V ~ ~ .X5X5X$XaXdXq...<.CXUXIXZXuXR.O...O.9.tXAXZXCXFXIXSXq.1.uXUXPXpXT.;XvX X% q C n g g b b M g 3 < < ",
"S b 1 3 a < = $ , h j B V ~ .XnXbX5XU.;.c s 5.dXUXUXCX5.c ..<.uXIXIX9Xi z tXIXUXSXdXBXFXIXPXpXT.~.zX.Xq e B n h n M M M g 1 * @ ",
"S b @ 1 b g w q g n h h V ~ A.cXMXOX+.X.<.9XAXUXUXCX9...:.pXIXPXSXBX8X5.0XKXUXSXE.;.q.DXIXiX5.U.vXwX0.e 8 e q , w b g 3 1 > @ @ ",
"S g o 1 b M n h n B e e V V V  XcXOX9XZXUXUXIXPXBX9.o.9.pXpXq.1.1.0XKXUXIXUXLX0X+.O.uXLXuXx d 2XbX.X0 0 % % $ $ , 1 > @ @ @ @ 1 ",
"S g $ 3 g M n n C B h q y y y q.$XcXpXtXpXSXUXIX0XO.O.uXZXq.A F 3.9XKXUXPXVX8XO.O.9XSX0Xx z {.5XbXOX0 e 8 % % , , , * @ o o @ a ",
"S b 3 b a n h g n B j % 5 0 e 6.OXOX+.c o.<.tXdX8X,.>.8XFXUXLX0XF 5.DXUXtX+...o.R.CXdXq.8.0XcX5XbXOXq.V y e h n h g a 1 > o @ a ",
"N M M m g n w w w q e # # 8 0 OXMX$X%.>.L.L...s ..,.K.,.q.ZXUXiX5.9XLXBX9.o.<.pXJXIXIXPXVX$X4X5XeX^ ^ / V V Z C C M M n g > > 3 ",
"N N N m b n h w , % % # # 8 0 6.MXnX{.O.o.>.9.uXuX8X<.,.@.+.0XPXUXCXq.>.@.o.E.ZXUXUXCXq.*.|.3XqX^ ^ ^ / V V Z C C C N N M b b a ",
"b N b n n n w q % # # % 8 y u ] OXbX2X*.z 8XIXUXPXdX0.,.K.,.<.dXLX9XO.@.>.9.dXIXUXHX6X+.Y.<XeX) ( ^ ^ / ~ V V Z C C N N N N N M ",
"< m a b n q 1 q % % % y r y u ~ {.5X5X2XXXVXNXR.>.>.,.L.K.@.9.CXJX8X>.o.9.VXUXUXKXrX3. XvXxXgX X_ ^ ^ ^ ~ V V C C C N N N N M S ",
"@ 3 3 3 w , , q 0 0 e j y 0 r u ' |.bXbX5X6.x v ,.,.,.@.O.8XHXLX9X;.o.<.uXPXUXHXtX{.$XnXxX>X*X4.^ L ^ ^ / V V B n n M M b b M S ",
"@ > 2 * * , q h h j j u y 6 6 u K R &.$XbXbX2X{.S.7XrXBXPXUXCX9.>.K.,.E.SXIXBXS. XcXMXMXgX.XC.' J t L ~ V y j h b h n b 1 g b N ",
"> * > o $ q h B V V j y u 6 6 L K J W V.2XbXbX5X3XOXwXpXZXtX1.c >.>.;.0.wXoXW.=XnXMXnXsXXXD.B.{ K 9 9 9 6 6 8 e e g g 2 < g b a ",
"a 2 > o $ w h B V j u u Y r 6 K K H U i.j.C.%X&X&X&XJ.J.H.H.P.P.P.P.Y.J.J.J.&X&X^.&X%XOXD.D.B.{ ) K 6 4 4 # # e h n w > 1 b a > ",
"N g 1 , , q e e y u j ~ ~ r r P P I I i.g.k.#XgXxXlXlXxXlXlXxXxXxXxXxXxXxXlXkXlXzX3X#X#XZ.C.B.{ { ( 9 4 4 5 8 B B n g 1 g m 2 * ",
"S M g g w q 0 0 r u ~ ~ u t L P W Q U t.d.n.m.#X|.:X>X^.^.^.^.^.^.^.^.^.^.^.>X:X$X#X#XD.B.B.B.} { ) 9 4 5 r j B n n n n M n > 2 ",
"S M n n h e y y u u ~ r r u P P W u.r.t.d.z.x.x.x.}.:X>X>X>X>X>X>X>X>X>X,X:X=X#XZ.F.Z.j.f.u.u.} { K 7 4 9 j V 0 w n n m m m 3 g ",
"S m M M n B B V u r ~ 6 6 t K P W r.i.w.s.l.x.x.x.x.s.w.U.*X,X>X>X>X,XoXZ.Z.m.m.k.m.k.g.t.r.} W P G 7 7 L ~ V % q C C b a m b b ",
"S m M n C Z V ~ u 9 L 6 5 7 G H U r.t.w.s.x.x.v.v.b.s.w.I J U.,X,X*X6.| u.a.z.n.z.n.k.a.t.r.Q W G 7 7 L ~ ~ V = e C n 3 2 b g 3 ",
"S M M n h e e u r 6 t 7 5 7 G H U r.t.y.s.x.v.).).b.l.w.I J 6.:X:X7._ R e.a.z.c.M.M.n.h.p.r.Q I G 7 K ^ ~ ~ V 0 B n n 3 2 3 3 1 ",
"S m m g , 8 % 5 6 4 6 7 9 G J H U r.w.d.l.v._.'.'.).c.w.I J I.*XI.` K P e.d.l.c.b.M.n.h.g.t.Q H G G ( ^ ~ V V e h n g g 3 > 1 g ",
"b a 3 , $ # # # 4 4 7 9 K K P W Q r.y.z.c.).'.].].'.N.a.E &.oX*X%.t J R e.d.l.b.b.N.M.d.a.e.U H G G P L r y y e w w w b b > 1 m ",
"> > @ o . # # 4 4 5 L L Y R W } r.t.d.M.N.'.].@X@X].N.k.C.A..XoX%.9 J I w.s.x.b.b.N.c.s.w.e.I H G G J t 6 8 0 q 1 3 3 b b 3 3 m ",
"@ o X o $ # % 8 6 9 ^ Y R { { u.i.p.n.M.'.].@X1X@X].).n.f.{ XX%XI.` J I w.l.b.'.).b.c.s.w.e.U I H G 7 7 5 5 % % > 1 3 3 b b 3 m ",
"o X o * = = q 0 r L ^ ( R { } } i.g.n.M.'.].1X1X1X].'.m.f.{ .X=X=X6.W E y.x.).'.'.b.x.s.a.t.r.Q W K 7 9 r 0 # # $ 1 3 < 3 b 3 M ",
"* o @ , q q q 0 r u L ( ( { } } i.h.n.M._.].1X4X1X].'.M.f.A.A.:X:X Xf.e.s.c.)._._.v.x.z.d.g.i.Q } R t u j y 8 # $ 1 g 1 > 3 2 b ",
"< * * 1 h e 8 8 8 6 r Y R { } u.t.h.n.v._.].1X4X4X@X'.c.f. XoX,X:XOXD.j.z.b.(.`.(.v.c.M.k.g.t.Q } { Y ~ ~ V y # $ g n b * > > 2 ",
"g 1 1 < h h 8 % 5 5 6 L K ) } u.i.h.n.b.'.].4XnX4X@X'.M.XXOX:X,X,X<XOX#X+X'.`.`.(.(.).M.k.g.t.Q } ) ( ^ / V B = , n n b @ @ @ @ ",
"N g g 1 h n q # # 4 6 t J R } u.i.h.n.b.'.@X4XnXnX1X].N.OX:X>X>X>X>XlX3X+X4X`.`.(.(.).M.k.g.i.u.} ) ^ ~ ~ V B w g n g a @ X o o ",
"S M m g n B h # # 4 4 7 7 P { u.i.d.n.N.'.@X4XnXnXzX,X,X,X>XjXjX>X>X>XjX<XcX|./.`.(.v.M.k.g.i.u.{ ) ( ~ V V B n n g > > @ . o o ",
"S M m b n C B # # 4 4 4 7 K W Q t.a.z.v.'.].4XnXnXlXjXjXjX>X~.!.~.kXkX>X>X>XkX%X/./.x.M.k.g.i.u.{ ) ^ ~ V V B C n g @ @ > X @ > ",
"S M M M M n h # # # 4 4 7 G H U r.y.s.c.(.+X1XnXnX>X~.!.!.W.C.B.6.Y.~.jXjX>X>X,X:X|./.`.m.h.i.u.{ ) ^ V y j B B n g > > 2 X > b ",
"S M m m n n , # # # 4 5 7 J H I E t.a.z.k.|.zX>X!.oXXXS.| K { u.u.4. XW.!.~.>XjX>X,X*X%X|.Z.j.u.| ' _ j e h B h n b 3 3 2 @ 3 S ",
"S m m b b g $ # % 6 6 t K P W W U Q f.Z.Z.$X*XP.4.B.4.| 7.S.7X0.[ ~ | 7XqXE.T.~.jX,X:XzXgXOXD.V.B.4.4.2.2.#.D C M M M 3 > 1 b F ",
"N b b b 3 1 . # 0 y r L ( | 4.B.| &.OXvXzX*X5.| -.4.9XZXUXIXIXUXUXCX1.0 B.aXXXP.Y.>XlXzXzXoXD.S.S.S.7.7.A.q.2.S Z S S < @ b b S ",
"M a b a * $ . % e V ~ 2.7.S.XXXX X=XzXxXjXT.$.! -.pXZX9XC $ > n 0.ZXUX0Xn ] D.S.3.Y.kXzXlX:XoXC.A.S.A. XoX X1.S S S F @ * M b S ",
"a 2 1 < X X . q C ] 4.A..X*X,XlXlX;XW.P.+.7.D.4.F q.q.D           $ S.IXCX=.~ B.7.U.gXvXxXkX;X*X%X*X:X-X>X*X3.S D S N . > M n S ",
"> @ @ @ X X > D 3.q. X.XgXkX;XY.+.<       C qXsX$.@ =.0.3.=.F m @   S tXiX=.w 7.S.$.+.5.W.!.kXlXkX;X-X-X-X*X5.F D S > X g M n S ",
"* @ @ * * g #.E.*X-X,XxXgX5.<     + x ;.l   V qXmXsXqXqXpXpXpXtX9XS.0.F 3 2.qXaX4.< O     O A P.~.kXxXzXhX.X0.3.[ F @ . b b m N ",
"> @ 3 #.oX3XcXzXlXkXW.+.>       O : v X.X.:   e D.fXmXfXaXXXXXqXsXfXsXaXsXmXfXC.Y p v X.i O     X +.oXGXIXmX.X0.1.F X X b g m N ",
"> * A }.nXnXMXMXhX5.*     + + O ; l v v X.v i   . V 4.S.XXXXaXsXsXsXsX#XD.B._ #   : c X.l + O O       D qXGXMXwX0.1.X @ m g m N ",
"@ @ A I.cXMXGXgX+.    + + + O O : c X.c c X.v i O       $ 8 0 j / / r #       + l v X.v x ;   O + +     X $.hXMXoX5.X @ m b m m ",
". o a 6.MXMX.Xh     + + + O O ; x X.v c x c v v i +     8 d d X       O : l x c c c c v c : O O + + + +   @ <.*XkX*X*X;XoXM b M ",
"X > %.cXMX.Xg     + + + + O O ; i l x c v v v X.X.i +   O + + + + ; l X.X.X.c c c c c X.X.l + O + + + + O   s P.;X;X;X*XU.m b N ",
"1 S 6.cXcX4.o   O + + + O + + O   O + ; i i i : ; ; + @ * @ O O - i x x x c v c x x l l l : + O + + + + +     +.T.;X;X!.5.3.a N ",
"+.5. XcXsX2.    + + + O O + + + + + O                 e T d o           + ; ; ; + + + O O O + + + + + + + O   < *.!.;X*X*X5.1.m ",
"0..XcXvXU.s     O O O + + + + + + + + + + + + + ; ; ; ; ; : ; ; ; : : : ; +     O O + + + O       O + + + O   & *.!.;X!.*XW.*.S ",
".X=X[.J.G.s       O + + + + + + + + + + + + + ; : : : : : ; i i l l l x l i ; + + + + O O @ b n $   O + +   + +.!.kX,X;X:X:XU.p ",
"I.H. . . .*.C.S.C.$.,   O + + + + + + O               X e d =     O     O + + O     O O   > 2.C.] X   O O &  .H.Q.U.I.I.+.f & X ",
"1.+.-.4.[ [ A.XXC.] =         O O     > F 2.$.D 1 +     o # .                 O + +     > [ S.aXS.h     o A *.*.%.%.] 2.A > 1 > ",
"3 =.3.3.$.h , e Z #.$.#.D F m O     [ 4.{ Q Q r.i.g.a.d.&.T &.v.v.v.v.c.k.h.a.t.r.Q 4.1   . e [ [ ,   f $.4.4.4.4.2.2.q.3.F 1.#.",
"o m F a b a p * $ $ $ , , k [ / y V ] ` { { } u.i.i.a.a.E e.a.z.z.c.M.n.h.h.i.r.Q } { ( L j j r L u j #.$.] D #.3.0.3.3.1.F 1.#."
};
