/* XPM */
static char *_7f6e5156abe447d850a8f49d97291c7gE4KiaiJGjCpS91B[] = {
/* columns rows colors chars-per-pixel */
"64 64 250 2 ",
"   c #000202",
".  c #0B0505",
"X  c #010907",
"o  c #010609",
"O  c #010C0B",
"+  c #0B0C0D",
"@  c #140A0B",
"#  c #01110D",
"$  c #0A110C",
"%  c #13120E",
"&  c #080D11",
"*  c #140D12",
"=  c #041411",
"-  c #0E1212",
";  c #041B14",
":  c #081B19",
">  c #141514",
",  c #1B1514",
"<  c #1A1A16",
"1  c #161919",
"2  c #1B1C1B",
"3  c #261A1A",
"4  c #371A11",
"5  c #05231A",
"6  c #07271D",
"7  c #1A211C",
"8  c #00331F",
"9  c #292418",
"0  c #342E15",
"q  c #392419",
"w  c #171E20",
"e  c #201D20",
"r  c #062E22",
"t  c #092C21",
"y  c #1C2424",
"u  c #083526",
"i  c #093B2B",
"p  c #1D2B34",
"a  c #242422",
"s  c #292B27",
"d  c #232C2B",
"f  c #342E2C",
"g  c #392A28",
"h  c #2A332E",
"j  c #3A342C",
"k  c #392C30",
"l  c #2B3334",
"z  c #283637",
"x  c #323432",
"c  c #373B39",
"v  c #451C1E",
"b  c #4E331B",
"n  c #461C25",
"m  c #4A2F27",
"M  c #58352A",
"N  c #463B37",
"B  c #563C36",
"V  c #643A2B",
"C  c #03432D",
"Z  c #08422E",
"A  c #074631",
"S  c #0A4632",
"D  c #064C35",
"F  c #0A4A35",
"G  c #0C4E39",
"H  c #07533A",
"J  c #0B543B",
"K  c #37413D",
"L  c #57511C",
"P  c #46453C",
"I  c #57493E",
"U  c #6A4B36",
"Y  c #73652B",
"T  c #2D3D45",
"R  c #343C43",
"E  c #0E5941",
"W  c #3D4541",
"Q  c #3B4947",
"!  c #394E53",
"~  c #3A5460",
"^  c #434541",
"/  c #474A46",
"(  c #564A47",
")  c #48534A",
"_  c #56554C",
"`  c #4B4F56",
"'  c #485957",
"]  c #565955",
"[  c #65564B",
"{  c #71574E",
"}  c #675955",
"|  c #4F625B",
" . c #59635B",
".. c #716B4E",
"X. c #66665A",
"o. c #76645B",
"O. c #5D5C61",
"+. c #5A6765",
"@. c #5D6B64",
"#. c #586E70",
"$. c #636B63",
"%. c #666866",
"&. c #6A6B64",
"*. c #786965",
"=. c #65756C",
"-. c #6C766A",
";. c #6B7977",
":. c #717170",
">. c #767A75",
",. c #894F36",
"<. c #847A37",
"1. c #8B5A47",
"2. c #995C46",
"3. c #94614D",
"4. c #85675C",
"5. c #AB6C54",
"6. c #A9745C",
"7. c #8A7064",
"8. c #95776B",
"9. c #8B7D78",
"0. c #947B73",
"q. c #AE7B6A",
"w. c #68847D",
"e. c #778477",
"r. c #7B837B",
"t. c #998C33",
"y. c #AB9839",
"u. c #C5A83C",
"i. c #A19741",
"p. c #85877A",
"a. c #998377",
"s. c #918E70",
"d. c #A9887C",
"f. c #B68973",
"g. c #D1B94C",
"h. c #C9927A",
"j. c #EDD152",
"k. c #FFF05F",
"l. c #FFFC64",
"z. c #647687",
"x. c #877E83",
"c. c #778A86",
"v. c #799286",
"b. c #789091",
"n. c #878684",
"m. c #8B8C83",
"M. c #958B85",
"N. c #879287",
"B. c #8C948D",
"V. c #94978A",
"C. c #838D91",
"Z. c #889A95",
"A. c #949D93",
"S. c #9C9D92",
"D. c #949998",
"F. c #AB8B84",
"G. c #B69589",
"H. c #A59D96",
"J. c #B69B90",
"K. c #91A194",
"L. c #99A499",
"P. c #A7A89B",
"I. c #B4AB95",
"U. c #979BA3",
"Y. c #9AAAA7",
"T. c #96A9AA",
"R. c #9EB2A9",
"E. c #A4ADA3",
"W. c #A8AAA6",
"Q. c #B6ABA1",
"!. c #A4B4AC",
"~. c #AAB6A9",
"^. c #B5B5AA",
"/. c #B4BAAD",
"(. c #A4ADB1",
"). c #AAB7B4",
"_. c #B5BCB2",
"`. c #BCBDB4",
"'. c #BBB9B9",
"]. c #C69A89",
"[. c #D69C84",
"{. c #C7A496",
"}. c #CDA692",
"|. c #D7A998",
" X c #E0A78D",
".X c #E2AD98",
"XX c #C6B5AA",
"oX c #D1B3A5",
"OX c #DAB5A6",
"+X c #C4BBB4",
"@X c #E5BAA9",
"#X c #EABEAE",
"$X c #B6C1B0",
"%X c #BDC3B5",
"&X c #B7C5B8",
"*X c #BCC4BA",
"=X c #C3C5B8",
"-X c #C4CABC",
";X c #CACCBD",
":X c #D5C9BB",
">X c #EBC3B4",
",X c #F6C9B5",
"<X c #F5C9B8",
"1X c #FCCDBB",
"2X c #C3BFC5",
"3X c #B5C5C3",
"4X c #BECAC2",
"5X c #C5C7C7",
"6X c #C3CBC3",
"7X c #C9CDC3",
"8X c #D6CBC4",
"9X c #CCD1C4",
"0X c #C8D3C8",
"qX c #CCD3CA",
"wX c #D4D5C6",
"eX c #D2D5CB",
"rX c #D4D9CD",
"tX c #D1CDD3",
"yX c #CCD7D2",
"uX c #D5DBD3",
"iX c #DADED3",
"pX c #D5DAD8",
"aX c #ECD7CB",
"sX c #E9D8CA",
"dX c #FBD5C5",
"fX c #FFDCCB",
"gX c #DCE2D5",
"hX c #D3E2DB",
"jX c #DEE3DA",
"kX c #E1E3D5",
"lX c #E3E6DC",
"zX c #E5EADD",
"xX c #EBECDE",
"cX c #FEE4D3",
"vX c #FFECD6",
"bX c #FDEAD9",
"nX c #DFE6E4",
"mX c #E5E7E6",
"MX c #E4EAE2",
"NX c #EBEDE4",
"BX c #EDF1E6",
"VX c #EEF2EA",
"CX c #EFF1ED",
"ZX c #F0F1E5",
"AX c #F3F4EB",
"SX c #FAF8EA",
"DX c #F4F6F4",
"FX c #F6F9F2",
"GX c #FBFBF3",
"HX c #FFFFFD",
/* pixels */
"MXMXlXlXAXVXVXlXuXuX-X9XzX%X=XBXAXBXzXNXlXrXMXrXP.=XiX-XAXF.N N 3 *.AXAXFXZXV.P.=X@.Q l | W h @.=.+.b.v.) 1 1 l / c.Y.6X%X=XE.N.",
"rXzXlXlXgXuXMXlXiXjXrXiXNXqXqXAXAXAXzXNXlXiXNXrXP.~.V.j N f n.H.^.z N H.+XFXQ.`.%X@.T y W x d #.@.) #.@.Q x h  .:.=.r.&X-X`.L.r.",
"E.iXlXqXK.N.6XjXMXMXNXAXAXNXBXAXAXAXAXAXlXMXBXkXH.9 _ ] & +XsX+XsX+.  %.^ [ gXkX/.-.c w l l y %.' d z K ) r.=.*X7X .^ E.&X_.A.=.",
"p.9XuXL./ W Y.jXMXNXAXHXGXHXHXFXAXFXFXFXBXFXFXAX( >.cXH.p.:XQ.XXXXM.Q.aXsX] *.iX/.S.$.) %.+.c O.W 7 K &.N.7X_.FXBXr. .A.L./.B.r.",
">.L.E.| - + ;.0X0XyXgXNXFXHXHXGXFXFXGXFXFXHXAXM.*.aX:X8XsX+XQ.XX+XaXaXXXXX8Xc S.7XrX^.E.7X).;.] ) / p.7XlXAXAXGXiX;X/.p.e.%XL.P.",
";.$.@.d -   W Z.Z.R.!.E.iXAXHXHXHXHXGXAXGXGXo.  M.SXM.f / H.aX:XM.P N Q.cXS.= 3 ;XFXNXZXGXNX!.r.N.N.;XHXHXHXHXMX9XGXAX$.p.eX%X6X",
"+.d d y z + 2 | #.Z.Z.r.&XqXzXAXFXFXNXiXBXm.>.=X>.f % ( a s / x f o.3   ] 8XP.>.a -XNXAXGXAXqX/.wXeXlXAXVXNXBX_.~.NXhX^ p.6X6X*X",
"W   1 c Q W c ) ;.!.&XE.~.A.B.D.6XgX0X).6X2 sXXXf 3 } ( 7.d.4 { 8.{ 0.F.g 3 XXSXH.] !.&XpXlXwXeXZXFXMX3X!.L.B.=.r.B.>.> P r.Z.Z.",
"d 1 W -.=.N.>.$.K.9XrXrXE.=./ l N.*X&XT.B.&.SX_ 0.].|.}.].}.q.#Xq.U dXdXfXU . Q.aX} w.Z.4XeX9XuXlXMX6Xc.' K d d c d - X 2 K | @.",
"_ $.N./.E.0X/.e.P.~.E.^.V.-.) % -.9X*X).A.:.P.( { %._ {.1X@X@X@X|.1XJ.( o.,XM } GXM.-.R.qXiXgXlX9X~.B.+.:       O     < / Q ) ' ",
"L./.%XeX=X6X~.-.c.e.e.V.s.S.p.) p.kXiXiXH.R &.j %.HXU.B dX>X>X#X<X{.@ 5X5Xo.2.N _ f m.jXNXAXAXNX-XA.@.Q 1 < 2 2 y > 2 ] V.>.@.@.",
"9XrX-X%XS.>.-.^ ' X.N.^.$XwX9XW.=XBXNXxXP.f *.*.+.%.( 4.OXf.f.}.1Xo.R W.DX/ ,.U ` & 9.GXFXGXFXAXjX_. .c  .m.m.>.>.&.&.W.$XA.e.e.",
"zXrXP.A.r./ ^ s / r.=XkXkXSXFXNXlXAXFXBXH.%.0.F.4 b 1.OXI ,.2.m {.J.I M m [ 6.V 9.Y.- NXHXHXHXFXFXNXm.] L.NXxX%X9X;X-XlX%XB.-. .",
"BXuX>.N.E.r.X.P -._.gXxXBXGXGXzXgXZXFXZXp.^.} oX.X[. Xh.3.2.5.1.].cX|.6.,.[..Xb [ kXT W.HXHXGXVXMXAXqXN.R.FXBX&XjXFXAXzX~.>.^ d ",
"NX-Xc r.0X;XP.p.^.gXeXrXFXFXGXgXgXAXGXAXV.9.[ bX@XU V b B B B V M V 1.6..X1X,XM %.bX! -.4XqX6X~.&X0X6XA.=.A.B.>.^.qX*XV.>.' d d ",
"NX~.> c.0XzXwX;XkXjX/.R.VXBXVXNXBXVXMXBXM.( J.@Xm *.W.'.tXtX2X'.W.x.} N { @XdXq.m 8X~ W @.=.@. .b.T.r.e.l x c W >.n. .f l R z @.",
"MX~.W Z._.nXuXgXAXzX&Xw.!._.!.yX0X~.L.D.o x <Xq U.HXHXHXHXHXHXHXHXHXHXHX` q #Xh.M x   s f , s P Z.T.r.B.] c /  .>.e.) a y w z N.",
"jXrXE.3X(.pX&X&XiXgXrXQ Q #.| Z.r.X.a N F.d.d.  yXHX5XM.V.n.n.>.n.tXHXHXD.  6.5.M e 7.,           o.`.uX5X^._.5X-X`.E.n. .7 z c.",
"jXBXCXpX).yX$XR.Y.L.L.- O ) Q r.,     a.bXvXd.  :.n.o               ( './   8.[.1.#XSX(   o   O X     } eXHXHXHXGXZXAXiX~.&.$.w.",
"qXAXFXgX4XyX&XY.#.Q K o < )       =   F.cX1X{.*     * @                 .   a.1X5.|.fX[ # i 6 O O O X     N 8XHXHXGXHXGXMXrX6XZ.",
"D.DXuXjXyX4X!.Z.! : 7 / [ .   O O S 8 I @X#XoX2 + 1 *               * 1 *   0.,X3.,X<Xa C H F =   O O O O     < o.XXGXHXHXHXFX*X",
"] pX!.0X6XL.v.c.' c ) g   O # X # S H ; . {.<X2   + , , * .   + o   > +     0.1X3.U g = J A D :   O O O O O O       j FXGXHXFXBX",
"d D.Z.Z.Z.=.=.Z.>.o.j   O # O X : G J # . #X>Xc D.w   n n n g m n @   c mX+ *.1X6.4   X Z D D r   O O O O O O O O O   *.;XqXlXGX",
"y ' c.' '  .c.H.@   X O O O O X t J J 6   {.vX7.U.pXO.N k 3 . * N } x.pXD.*.>X|.q.V     6 J D i X O O O O O O O O O o   X.E.qXqX",
"Q ! @.7 h N.M.    # O O O O O X i J G Z   f fXcX4.>.n.] } %.} _ / n.5X:.o.cXdXf.2.*   X # F D A # X O O O O O O O O O   @ S.6XN.",
"v.;. .a c *.  X O O O O O O X # S G F F #   [ bXfXd.d.{.].}.|.].J.8.{ J.bX>Xh.2.3   # O   u D F 5   O O O O O O O O O O   j !.' ",
"6X_.p.&.I   X O O O O O O O X : G F F J 5     o.dXvX1X<X@X6.,.h.dXdXcX1X.X5.v .   O # X + A D D r   O O O O O O O O O O O   ^ K ",
"BXMX$X[   O O O O O O O O O X t J F F E t     . N F.cXfXcX#Xf.<XfXfX#Xq.v . o   # O O   r H A D i O O O O O O O O O O O O o   ) ",
"BXBX}   O O O O O O O O O O X i J F F J G +   + L 0 ( F.{.OX>X1X{.4.q . 0 g.<.  O O X + F D A A F = X O O O O O O O O O O O   < ",
"jXQ.  O O O O O O O O O O X # S F F F F J S     9 0       > N g     . i.k.l.y.  O #   6 H A A A D 5   O O O O O O O O O O O O X ",
"jXj   O O O O O O O O O O X : G F F F F F E 5   X X # O             7 k.j.g.Y   O   X F D A A A D r   O O O O O O O O O O O O O ",
"P.  O O O O O O O O O O O   t J F F F F F J S     O O O O O O O O O $ b 9           u J A A A A D i O O O O O O O O O O O O O O ",
"N   O O O O O O O O O O O X u J F F F F F G J :   O # O O O X O # # O         + u F J A A A A A A D =   O O O O O O O O O O O O ",
"< o O O O O O O O O O O X # S F F F F F F F J i X O O O # O o O # O O X X   X S J D A A A A A A A H 6   O O O O O O O O O O O = ",
"> o O O O O O O O O O O X : G F F F F F F F G G = X O O   9 g.0   O O O O   u H A A A A A A A A A D r   O O O O O O O O O O O & ",
"X O O O O O O O O O O O X r J F F F F F F F F J r   O O   0 l.L   O O #   : J D A A A A A A A A A D A O X O O O O O O O O O O & ",
"+ O O O O O O O O O O O X u E F A F F F F F F J F O O O O X b % O O O X + F G A A A A A A A A A J A 5 O O O O O O O O O O O O & ",
"9   O O O O O O O O O O O O 6 G J F F F F F F F J 6   O O O   O # O O   i J A A A A A A A A D G r O   O O O O O O X o O O O O & ",
"I   O O O O O o X O O O O O   = i J G F F F F F J S O O O O # O O #   5 J F A A A A A A D H Z :   X O O O O O O O X o O O O O O ",
"s.X O O O O O + * O O O O O O X X 6 G J F F F J J E 5 X O O O O O X ; E H F F A F A A F F r O   O O O O O O O O O   o O O O O O ",
"9X< X O O O O + % O O O O O O O O   # i J J G i r 5 # O O O O O O X 5 i i F F J J D J Z ;   o O O O O O O O O O O   o O O O O O ",
"NX(   O O O O X . O O O O O O O O # X X 6 6 = O     O O # X O # O O X   O = ; 6 r i r o   O O O O O O O O O O O O   o O O O O o ",
"MXp.  O O O X > 3 X O O O O O O O O # O X   X O O O O O O o X O O O O O O X X   X O X O O O O O O O O O O O O O O     O O O X - ",
"zX^.  O O O   , g   O O O O O O O O O O O O O O O O O o o g.Y   # O O O O O O O O O O O O O O O O O O O O O O O   > + X O O   ( ",
"zXlXP   O X - } % X O O O O O O O O O O O O O O O O O   o l.t.  O O O O O O O O O O O O O O O O O O O O O O O X   G.(   O X X `.",
"jXgXP.      P cXj   O O O O O O O O O O O O O O O O O O   b 9   O O O O O O X   O O O O O O O O O O O O O O O   f cXd.      ] FX",
"iX0XyX> 2 P {.SXo.  O O O O O O O O O O O O O O O O O O O     X X X X X O O ; 5 O X O O O O O O O O O O O O X   0..X}.0.N > W.AX",
"4X!.3X[ >XfX{.{ d.  X O O O O O O O O O O # O X X X X X O O = ; 5 6 t u i S F J i X X O O O O O O O O O O O   1 0., a.1X,X4.=XNX",
"C.;.c.o.dX<XF.  o.a X O O O O O O O O O O O # = ; 5 t u i S F G H J J H H H D D J A # o O O O O O O O O O O O + , , F.@X#X8.rXxX",
"` Q T I @X}.o.B * X O O O O O O O O O O O O O S J J J J J D F A Z Z Z Z i i i i u Z t X O O O O O O O O O O O X   j 8.G.OX4.iXlX",
"T p p f o.o.*.B   X O O O O O O O O O O O O O ; 5 ; ; ; ; = # # # O O O O O X X X X O O O O O O O O O O O O O O   } 8.4.7.[ gXgX",
"~ z ! N ^ } F.}   O O O O O O O O O O O O O O O X X X X X O     O O O O O O O O O O O O O O O O O O O O O O O X X o.7.8.( ] iXqX",
"! T ' g 1 a.7.,   O O O O O O O O O O O O O O O O O O O O X < < X O O O O O O O O O O O O O O O O O O O O O O O   < a.4.s p.uX4X",
"d l W s K N ( X X O O O O O O O O O O O O O O O O O O O O   g.y.  O O O O O O O O O O O O O O O O O O O O O O O   a P 9 m.qXrX&X",
"o 1 2 1 B.r.p.N.  O O O O O O O O O O O O O O O O O O O O   g.u.  O O O O O O O O O O O O O O O O O O O O O O o o P , s 4XMX9X4X",
". w s Q R.7X%X~.X X O O O O O O O O O O O O O O O O O O O   9 9   O O O O O O O O O O X O O O O O O O O O O O o O >   X N.uX&XyX",
"P +.n.Y.!.$X-X9Xs   O O O O O O O O O O X             O O O     # O O O o               X O O O O O O O O O O o o @     W A.!.hX",
"V._.rXMX~./.9XiX]   O O O O O O O O O   f 7X/.&.) s                         - 1 s f x x s   O O O O O O O O O o X @     $ ) v.).",
"qXjX0XAX0X*XrXlX>.X O O O O O O O O   > P.NXNXrXzXlXjX9X^.&., < %.:.m.S.=XiXP.< o   % $ x   X O O O O O O O O   a x >     > c ] ",
"MX0Xv.;XAXMXjX/.l X X O O O O O O     _.kXZXZXAXAXlXNXNXMX/   ] (.>.;XlXzXMX9X_ +   + +   a   O O O O O O O O   *.p.] l         ",
"yXU.' L.HXFX^.s ..9   O O O O O     =XMXZXkXNXFXFXNXNXeX(.> + W.6Xm.wXrX'.*XzXL.2   + .   . s   O O O O O O     =XeX'.D.        ",
"C.z.! -.qX6X$...I.[   O X O O   > j B.7XNX9XkXNXNXMXiX(.+.  a 5X'.P.rX%XD.).jX-X) K c 2 . + a O   O O O O o   $.zXCXFXCXc 2 s a ",
"z #.;.' ;.%.] ..s...X X O O O   I I.j r.jX;X;XiXiXrX*Xb.y   l U.C.Q.gX-X/.qX7X~.A.W.B.P < 2 9 7   O O O O   ) c.qXmXCXHXY.-.D.m.",
"- #.b.' ' x ^ P s.s.9   O O o - 7.f.[ %.iX;X%XqXeX7X~.z.+   c z.;.~.jX7X-XlX`.A._.uX/.] 7 a P 7   O O O O   s +.&.P.nXFXyXA.0X_."
};
