/* XPM */
static char *_9d22f6522ca4ecdfd52a6864acf4c1bXyb2u6U58O3Ooi5J[] = {
/* columns rows colors chars-per-pixel */
"64 64 248 2 ",
"   c #010101",
".  c #080A07",
"X  c #03050A",
"o  c #050A0B",
"O  c #0B0C0B",
"+  c #0D100E",
"@  c #11130D",
"#  c #090D12",
"$  c #0D1414",
"%  c #0C1818",
"&  c #131514",
"*  c #151916",
"=  c #151C1B",
"-  c #1A1D1B",
";  c #1A211C",
":  c #23251D",
">  c #202A1A",
",  c #0C1923",
"<  c #151E23",
"1  c #1C2424",
"2  c #1B2827",
"3  c #1B262A",
"4  c #1A2A32",
"5  c #222423",
"6  c #232B25",
"7  c #242C2B",
"8  c #2A2C29",
"9  c #342F2B",
"0  c #28332B",
"q  c #2B322E",
"w  c #33362B",
"e  c #272E31",
"r  c #253334",
"t  c #2B3333",
"y  c #2C353B",
"u  c #2A3838",
"i  c #333735",
"p  c #333934",
"a  c #333D3C",
"s  c #3A3E3B",
"d  c #3D432E",
"f  c #374339",
"g  c #3B423D",
"h  c #42483B",
"j  c #4E533D",
"k  c #2C3D43",
"l  c #333D42",
"z  c #3C4542",
"x  c #384746",
"c  c #3C4B4B",
"v  c #3C514D",
"b  c #344D51",
"n  c #374A54",
"m  c #395769",
"M  c #434642",
"N  c #434B44",
"B  c #4A4C47",
"V  c #434C4B",
"C  c #504F4D",
"Z  c #4B5547",
"A  c #43534D",
"S  c #4B534C",
"D  c #53584B",
"F  c #434E53",
"G  c #475757",
"H  c #4C5553",
"J  c #4B5C5C",
"K  c #545B54",
"L  c #585B55",
"P  c #525B5A",
"I  c #4E6158",
"U  c #54635C",
"Y  c #596558",
"T  c #5B625C",
"R  c #626958",
"E  c #727557",
"W  c #505C63",
"Q  c #4D6365",
"!  c #556765",
"~  c #5A6462",
"^  c #5C6B64",
"/  c #5B6B6C",
"(  c #5B7167",
")  c #516D7D",
"_  c #5B7378",
"`  c #636C64",
"'  c #666C68",
"]  c #6C7464",
"[  c #64756C",
"{  c #6C746C",
"}  c #69796B",
"|  c #727667",
" . c #727A6C",
".. c #636B70",
"X. c #6D7C74",
"o. c #677778",
"O. c #757B74",
"+. c #727C7B",
"@. c #73846F",
"#. c #6B8277",
"$. c #748373",
"%. c #7A8274",
"&. c #7A8977",
"*. c #74837B",
"=. c #7B837A",
"-. c #7B8A7C",
";. c #858879",
":. c #838C7B",
">. c #8E9174",
",. c #8A927C",
"<. c #5B7983",
"1. c #6D7987",
"2. c #6D8787",
"3. c #748381",
"4. c #778A86",
"5. c #7D8B83",
"6. c #6E928A",
"7. c #7C9389",
"8. c #758A94",
"9. c #7A9494",
"0. c #868A84",
"q. c #838C84",
"w. c #8A8D84",
"e. c #869285",
"r. c #8B9384",
"t. c #889887",
"y. c #85938C",
"u. c #8B948B",
"i. c #8D9A8C",
"p. c #939788",
"a. c #939B8D",
"s. c #858D91",
"d. c #879997",
"f. c #8C9C94",
"g. c #939C94",
"h. c #999C95",
"j. c #939E9B",
"k. c #9CA28A",
"l. c #8BA298",
"z. c #95A395",
"x. c #9BA494",
"c. c #97A69A",
"v. c #9CA49B",
"b. c #9EA99B",
"n. c #9CB09D",
"m. c #A5A898",
"M. c #A4AC9D",
"N. c #ABB097",
"B. c #A9B19D",
"V. c #8A9CA4",
"C. c #8EA3A3",
"Z. c #98A9A7",
"A. c #9CABA4",
"S. c #9DB2A8",
"D. c #92ACB1",
"F. c #9CB4B5",
"G. c #A4ADA3",
"H. c #A4ABA7",
"J. c #ABAEA3",
"K. c #A4B2A4",
"L. c #ABB3A4",
"P. c #A4B3AB",
"I. c #ACB5AC",
"U. c #A9BAA9",
"Y. c #ACBAAC",
"T. c #B2B6A4",
"R. c #B2B6AC",
"E. c #B4BAAC",
"W. c #BABCAC",
"Q. c #A4ADB1",
"!. c #ACB4B1",
"~. c #A7B8B7",
"^. c #ACBBB5",
"/. c #B4BCB3",
"(. c #BBBDB4",
"). c #B8BCB7",
"_. c #B3BEBA",
"`. c #C0BFB0",
"'. c #B9C1AC",
"]. c #ACC1BA",
"[. c #B5C2B4",
"{. c #BCC3B4",
"}. c #B4C2BB",
"|. c #BCC4BB",
" X c #BAC8B9",
".X c #BDC9BD",
"XX c #C3C7B4",
"oX c #CDCAB2",
"OX c #C2C5BA",
"+X c #C4CABC",
"@X c #CACCBC",
"#X c #CDD1BE",
"$X c #B3BFC0",
"%X c #B5C4C3",
"&X c #BDCBC3",
"*X c #BAC8C8",
"=X c #C3CCC3",
"-X c #C6CAC5",
";X c #CACDC2",
":X c #C3CDCA",
">X c #CCCFCB",
",X c #C5D1C4",
"<X c #CCD1C4",
"1X c #CED8C4",
"2X c #C6D2CB",
"3X c #CCD4CB",
"4X c #CED9CD",
"5X c #D1D4C5",
"6X c #D2D5CB",
"7X c #D6D9C8",
"8X c #D4DACD",
"9X c #DADCCD",
"0X c #CBD5D1",
"qX c #CED9D2",
"wX c #C6D8D8",
"eX c #D4DBD2",
"rX c #D3D9D6",
"tX c #DADDD3",
"yX c #DADED9",
"uX c #DDE2CE",
"iX c #DCE2D5",
"pX c #D6E3DA",
"aX c #DDE3DB",
"sX c #E1E2CE",
"dX c #E1E3D5",
"fX c #E8E8D6",
"gX c #E3E5DB",
"hX c #E5E9DD",
"jX c #EAEBDD",
"kX c #DEE6E1",
"lX c #D8E8E8",
"zX c #E3E6E1",
"xX c #E5EAE2",
"cX c #EBEDE4",
"vX c #E5EDE9",
"bX c #ECEEE9",
"nX c #EDF1E6",
"mX c #EEF2EA",
"MX c #EEF2EE",
"NX c #F1F2E5",
"BX c #F3F4EC",
"VX c #F6F8ED",
"CX c #F9F9ED",
"ZX c #F5F6F1",
"AX c #F6F9F2",
"SX c #FBFBF4",
"DX c #F7FDFB",
"FX c #FEFFFC",
/* pixels */
"xXxXgXgXBXmXBXgXeXeX+X<XhX XXXnXBXnXhXcXgX8XcX8XN.|.tX+XBXNXcXVXVXSXSXBXSXNXp.m.XX^ x t I z q / [ ~ 8.4.A = * t V 3.A.=X|.OXG.e.",
"8XhXgXgXpXeXxXgXyXaX8XtXcX<X<XBXBXBXhXbXgXtXcX9Xm.L.3X<XSXSXBXSXSXFXFXSXFXSXB.W.{.^ k 1 z i 6 [ ^ V / ^ z p 0 T { } -.|.+X).b.=.",
"K.tXgX3Xz.y.:XaXxXxXbXBXVXbXnXVXVXVXBXBXgXxXnXdXB.i.}.6XBXSXVXSXSXSXSXSXFXSXiXdXE.{ a < t t 2 ..H 7 y f Z =.[ |.-XU N G.|.).g.} ",
":.,XeXc.N z A.aXxXcXVXFXSXFXFXSXVXSXSXSXnXAXSXBX-XM./.=XG..XtXaXcXxXxX<X!.eXcXtX/.h.` S ' ~ a W z ; g ' r.-X/.SXnX=.T g.v.E.g.=.",
"O.M.K.U $ o +.2X2XqXiXcXAXFXFXSXSXSXSXSXSXFXFXFXBXiX,XY.S &.|.OX5X5X<Xi.V y.8X+X;X8XR.J.-X!.X.P H N ,.;XgXVXBXSX9X@XR.;.%.).b.G.",
"X.` ^ 7 $   z d.d.S.P.G.tXBXFXFXFXFXSXBXSXSXSXFXFXSXaXE.Z $..X;X5X<X'.@.o f .X;XhXVXcXNXSXcXP.=.r.r.@XFXFXFXFXzX<XSXBX` ;.6X|.=X",
"/ 7 7 1 u O - J ( d.l.=.[.3XhXBXAXAXcXtXnXhX<XiXSXFXBX#Xi.L.iXhXgXiXXXr.5 1 L.eXxXcXcXBXSXBX3XE.5X6XgXBXmXcXnX_.Y.cXeXN ;.=X:X&X",
"a   = a v z p A X.U.}.H.I.g.u.g.=XiX2X^.4X[.{ %.6XFXFXdX<X9XBXVXnXBX9X+Xw.Y 5._.^.&XP.}.rXgX5X6XNXVXzX%XP.c.u.[ *.u.+.* h *.f.f.",
"7 = z } [ e.O.` z.<X8X6XB.} V t e..X}.Z.&XK.N N M.gXAXVXnXNXAXBXnXSXVXSXBXXX-.9.^ 7.#.d.&X6X<XeXgXxX=X4.J f 7 7 a 7 % X - f U ^ ",
"D ` q.R.K.3XR.%.M.L.G.T.p.| Z @ ] ,X.X^.6X,Xu.;.&.O.8XFXFXSXAXbXhXSXFXFXFXSXR.3.2 A y.S.3XtXiXgX<XY.u.Q %       o     * B z A J ",
"x.E.{.3XOX-XI.} 5.$.$.r.,.k.,.B ,.iXtXtXNXcXtX5X:.t :.gXFXFXSXxXiXhXcXnXiXmXxXb.g L :XaXcXBXBXbX+Xa.^ c = * - - 1 * - L a.O.^ ( ",
"<X8X+X{.h.O.{ N G R r.T.'.5X5XJ.{.nXbXjXSXfX{.<X/.H 6 =.AXFXSXiX8X{.P.A.f.S.aX6XG.R.ZXSXSXSXSXVXaX/.Y a Y 0.w.O. .] ] J.'.a.%.$.",
"hX8XM.h.=.V M 6 N -.XXdXfXVXVXcXhXBXSXNXSX8X:.M.tXA.8 ; R.-X).g.z.$.Y I v v P.cXBXZXDXFXFXFXFXAXVXcXw.K c.cXjX{.,X#X+XgX{.u.{ Y ",
"nXeXO.e.G.O.R h  ./.iXcXnXSXSXhXiXNXSXNXVX9Xr.a.3XpXr.  M B M p g f 0 6 % # X.eXpXpXpXMXDXFXSXmXcXBX<Xy.A.VXnX[.aXVXVXhXY.+.M 7 ",
"bX+Xs -.3X@Xm.;.E.iX4X4XAXVXSXiXiXVXSXVXVXhXR.K.6XSXI.    . * q z H L p p p [ c.c.l.c.}.&X3X=XY.].2X=Xg.} h.i.+.I.>X).u.+.G 7 8 ",
"bXL.& 4.,XhX7X@XdXaXY.S.mXnXmXcXnXnXxXcXBXcXeX4XcXcX`     : D p.J.).).$.m.J.x. .$.@.} -.^ [ ` U 9.C.*.*.p i p z O.0.T 8 t l r ^ ",
"xXU.z d.^.kXeXiXnXhX X#.!.^.P.3X:XI.c.:XpXxXBXnXtXh.6 p 8 ` m.7XnXFXSX'.bXSXuXr.a.i.f.u.2 # ; D l.Z.*.u.K s M T O.%.S 5 1 < r 7.",
"aX4XH.%XF.rX|.|.tXiX8Xc c ( U l.*.K A d.S.2XcX6Xb.B w ;.Y 7.U.8X8XSXSXuXSXFXSXtXtXtXyX4X0   > m.eXrX3XrX-XR.).-XOX).J.0.Y ; r 2.",
"aXbXMXrX~.qX[.A.A.c.v.$ o A c $.z 6 z ! ! y.J.r.&.D | m.-.o.#.,X[.<XVXBXSXFXFXFXFXSX6XtX .C  .fXFXFXFXFXFXFXFXFXSXNXBXtXY.' ` #.",
"3XBXAXpX&XeX XA._ x g   - |  .r.N Z &.I u ! L s &.x.J.k.b.J z 3X[.M.VXSXSXSXSXFXVXxX0.m.>X>XtXFXFXFXFXFXFXFXFXFXFXSXFXSXcX6X=Xy.",
"h.ZXeXaXqX&XK.d.b % ; B R m.W.B.r.m.'.] ` *.6 & ,.@X@XN.{.] Z .X2XK.BXaXeXgX8X9X8X6XR :.DXFXFXFXFXFXFXFXSXFXFXFXFXFXFXFXFXFXSX|.",
"P yXU.,X,Xc.5.2.A p Z K.m.E.+X{.8XdX@Xa.W.E.w 5 %.W.XXXX9XT.p.n.0X}.6X}.P.<X'.XXXX6X,.x.FXFXFXSXSXSXFXFXFXFXFXAXSXSXFXFXSXFXVXnX",
"7 j.d.f.f.[ [ l.e.e.h.3XL.O.w.[.tXtX{.T.5XW.Y g D p.Y.7XjX#X'.t.I.A.u.R.I.<X<X6X6XgXOX<XBXcXeX=XA.).BXFXFXAXFXxXkXpXbXcX@X<XgXSX",
"3 J 2.G J U 5..X<X6X:X|.b.z g Y.G.i.b.{.{.i.5.` q X.K.<XhX{.T.-.$.@.] <X;XhXVXAXAXAXbXBXBXtX|.A.U { {.tX3XOX6X:X*X*XqX|.r.J.3X3X",
"c c ^ ; q q.).hXhXiXqXI.U.J r [.-.z 5.6XG.*.f.f.A #.P.U.8Xi.z.-.Z E x.cXjXVXFXFXFXFXSXFXSXcX4X|.=.D ^ { ` L T P.^.&X}.X.] L.:Xy.",
"5.X.T 5 s G.<XtX5X+X,X).,X7.J +X-.t U gXY.9.P.}.*.i. Xz.Y.[ } %.D >.cXSXSXSXFXFXFXSXVXFXBXnXbXBX5X-.u #   + - Y.=XqX!.U -.<XP.G ",
":X).:.` | e.x.v.L.{.<XeX8Xf.5.{.R. .t cX3X^.qX<Xf.T.4Xc.&.J z R p.oXFXSXVXVXCXSXFXVXAXAX+X3XnXFXSX<Xv     9 L tXgXzX).u.|.tX+.f ",
"nXxX'.{.L.-.-.=.x.[.8X6X{.i.L.[.5X+XN 4XgX+X;XK.=.m.E.5.A x - | dXSXSXBXVXVXCXnXzXbXAXxXb.L.iXSXDXaX!   - ,.XX6XeXcX6X6XbXiX/ Y ",
"nXnXiXxX8XL.K.M.K.U.8Xr.=.c.[.[.E.dXv.j.;XB.%.Y H ` { V 7 1 * L.VXDXtXVXFXSXSXtX/.gXbX4XK.K.3XgXlXd.t O | tXNX=.z.bXxXhXzXtXg.g.",
"aXgXnXBXnXnXjXgX.Xi.3XS y 3.i.c.u.8XtXP y.@.p 2 u F q % 1 o t xXnXcXE.eXzXtXgX;XG.tXzX,X}.!.:X*Xd.r & h '.FXBXz -.BXmX:XI.6X=XZ.",
"aXaXnXnXBXFXBXnX.XY |.V # z A ! 5./.|.t V U p 0 v o.2 # 1 o G vXeXeXe.c.J.z.E.{..XpXaX,X2X^.%XD.a   s x.8XFXmXI L.AXvXZ.*.=X}.3.",
"nXxXnXeX:X=XJ.G.r.0 -.V - ; 2 u ^ =.5.N 6 U ~ ^ 3.C.H = $ O ^ ^.P.G.} #.*.&.t.Y.yXpXeXeXaX}.F._   & a.hXgXSXnXt.6XbX2XV.o.f.C.[ ",
"xXpXaXY.$.T g s p $ u N D d g f A A X.r.f  .g.I.).I.c.w . : [ [ o.^ Y ^ ..y.#.A.qXrX3X3XkX].6.4   g eXnXaXhXhXK.=X3X~.~.d.Q 6.f.",
"I.K.c.` 8 +   o X o z ` k.,.:.=. .` g.3X:.B.{.iXgX-XtX;.B | u.A u 4 x U ! 3.[ A._.rX0X^.I.5.x     f .X/.g.v.|.G.Z.F.Z.0X*XJ 6.Y.",
"P P z ; .   o 3 = 7 x.M.oXtX@X6X;X{.6XnXtXtX5XjXNXhXAXtX`.5X<X` 2 < r V G H [ _.A.0X*X2.[ H %   O : ` ` z F 4.3.2.9.C.>X3Xd.d._.",
"1 1 % % ; 2 v Q P *.hX7X7XSXNXSXCXjXVXVXSXgX;XiXfXSXSXFXSXVXVXB.T G c t c G d.0X~.].d.v Y T B C L g 6 h d x k v Q <.d.j._.}.Z.%X",
"= & = g D U 2.4.r.{.hXgXuXCXVXVXNXfXjXjXcX5X-X<X7XVXbXSXSXhXgXtXE.L.;.8 l _ P.*X~.9.J b t.L.J.).+Xa.u R ;.+.3 1 x _ d._ 9.%Xf.}.",
"w : : E ,.r.7.*.i.G.&XaXdXjXNXfXdXfXsXtX5X<X6X+X6XgX6XgXcX,XH.aXiXfXW.K N o.*.4.7.c x 4.,XhX4X<XSX6X=.M.#X|.~ O 2 y.~.4.Q V.+.j.",
"E j h ;.T.T. .Z ^ H 7.:X5XtXjX9XdXcXdX6XOX9XtX-XtX3X|.eXeX=X3.^.3XbXdXx. .*.t e l = / qXmXAX&X/.FXnX6XgXVXnX_.5 q {.pX}.x Q J U ",
"N.,.;.;.XX#XE > 0 = G Z.x.<XgXiXfXVXjX;XOXdXgXOXtX<X=XtX}.eXj.#.A.bXnXiX{.R.:   o 8 $XDXFXAX,X+XAXBXBXBXFXSXcXY  .9XhXrX2 3 y 7 ",
"8X#X+X,.+XiX>.@ X o 7 / U E.6XaXcXBXnX6XtXjXiX{.tXeXaXzXY.gXtXT 4.xXcXzXbXNXB     M rXZXAXZXaXcXnXnXmXcXSXVXnXA.[.1XY.H.1   < % ",
"cXcXaXL.8XnX#X$   $ % 7 r f.{.iXNXtXiXiXVXVXgX{.8XxXcXbX<X9XSXi.@.eXgX|.tXSX-.    w O.hXAXBXBXSXgXnXmXmXBXBXBXpXqX[.Y H p . * $ ",
"xXcXgX6XhXBXcX*   $ X   % / 5.b.<X|.R.;XtXxXcX5XiXbXxXBXBX5XBX9Xt.K.6Xw.M.eXy.  & : 8 tXAXAXSXSXaXVXAXcXeXxXNXbX2XY.u 3 Q O w M ",
"hXhXgXxXcXbX*XO   X     o u y z 3.S.-.w.0.E.BXcXcXgXgXNXFX9XtXSXE.] @X] %.y.U   p V ~ cXSXFXSXbXxXSXFXeXS.4XjXxX3X&XI G 2.O ` x.",
"hXgXiXhXgXpX*.  O & * 1 t A y = r o.I { S p.VXFXVX9XiXW.eXgXXXcX<X` T.D X.! 2   V 8.%XDXSXFXSXcXVXSXBX.XC.=XiXeX3XeXA.9.2.t c.gX",
"aXiXiX4X:X%X0 . h D D =.a.H.u.L < 7 v v.^ x.BXSXBXdXiXL q.8XG.3X=Xm.i.g 7.( O   l D.lXDXyXxXSXVXSXAXtX|.&XqXtX3X6XeX3Xd.J 5.|.AX",
"iX3XrX&Xd.3.  - :.c.z.:XgXBXhXE.H q X.0Xo.L.BXBXcXNXfXC X./.G..X-XdX&.G ~.[ o   1 8.~._.A.I.3XrXcXnX=X=XnXkX2X.X6X6XkX/ u <X3XnX",
"&XP.*X~.V 7   h |.6X3XcXSXFXSXcX).r.E.pX/ K.cXtXtXVXcXa.b.z.I.eXtXcX-.4.%XU     o y V H Q / o.V.%XaX.X3XSXzX^.!.3X3XrXt g cXtXbX",
"y.o.8.o.o   $ :.gXnXnXnXAXAXbXVXSXfXNXvX1.i.H.j.I.zXgXY.M.q./.cXVXiXz.~.C.i           o r k r ) 9.&X_.6XBXrXZ.~.3X=XZ.o ] VXtXjX",
"F x k 3     x |.cXBXAXBXAXVXhXcXFXSXSXnX|.r.G c o.!.!. .` *.b.tXBX=XK.F.J O             3 3 , m _ S.^.6XgX*XD.:X0X&XW X m.nXtXgX",
"k 4 4 q w S 5.yXcXcXBXcXBXBXxXcXAXSXaX4XbX!.W < c H ~ 0 i 3.X.c.|.b.e.[ =               * 3 r m _ ].:X6X+X%X*XkXzX0X3 . +X8XiXiX",
"n u c ` &.P.|.tXdXgXjXgXjXbXnXBXBXmX:XP.SXcXI.a S & &   3 o.a F { ' S -                   < x k +.}.rXeXY.:XvXmXbXpX$ O 2XE.tX4X",
"n k J Y z.pXrX=X+X8XgXgXdXdXxXcXgXcXrX_.SXFXbXu.a.B     X c & * 6 q - #       O O         X 2 % H y._.pX}.qXFXxXrXwXo 6 pXE.eX&X",
"7 t z 6 r.yX4XY.K.@XdXjX9X<XgXyX8XbXmXxXSXSXVXxXcX).: o . &         X 3 & o   * & o       o * % 2 u o.}.]._.kX%XD.C.o u kX<X6X}.",
"  & - % f.rX=XY.K.@XgXdX@X@XgXeX8XVXSXSXFXzXbXFXFXSXw.{ C   .       X 4 t a - - O       < ~ ~ / l   1 ! o./ d.8.Q F   6 &XxX<X&X",
". < 7 c S.;X{.{.[.;X8X@XXX5XbXpXaXAXAXBXbXeXgXcXAXFXcXtXE.5 O O - i < 3 G +.s &         y Z.~.$X/ * & q l y b n < o   o y.rX}.4X",
"h ~ 0.A.P.[.+X<X+X+XK.B.+X9XBXcXgXbXBXhXE.6XgX<XgXSXFXFXBX=.& : [ s.P z =.A.P o         r 4.Z._.! ~ ' { { / 4 <         z j.P.pX",
"u./.6XxXY.E.<XtX;X+Xt.k.6XgXcXgXtXhXbXgXa.tXcX.XiXbXBXSXFXE.& 9 Z.*Xp.;.L.+X+.      . o = r J { i 4.[.;X3X%XG q O       + A 7.^.",
"6XiX,XBX3X=X8XgX6X,Xc.M.aXhX7XE.).dXgXgXT.cXbX8XhXgXcXAXFXa.o 9 F.Z.W.@XdXhXJ.* .   @ + o X = 8 o A b.qXAXMXj.E R p &     * a P ",
"zX2Xq.#XBXkXaXhXiXiX:X|.6XOXa. .p.hXhXxXdXNXNXVXVXgXcXcXzXB   L Q.+.@XgXhXzX<XC O   O O         & + S j.qXZXgXXXW.;.P t         ",
"0XC.G x.SXAXxXaX9XgXaX|.b.O.M p ' hXbXxXNXdXcXSXSXcXbX3XQ.& O J.=Xw.5X8X).).hXm.-   O o         g & & F q.eXZXsXfX6X).j.        ",
"s.<.F X.3X-X/.G.m.L./.f.` V i t H |.rX-XxX5XdXbXbXxXtXQ.!   5 :X).m.8X|.h.!.gX+XZ g a - o O O O Y 6   % a e._..XhXZXAXbXs - 8 5 ",
"y ) o.J +.` S M g M H F a c o.W x +.j.f.yX@X;XtXtX6X|.8.1   t V.s.T.iX+XR.>X-XL.h.H.u.h * - : * j 8   o O q H 4.2XzXMXFXA.{ g.w.",
"$ ) 9.G G i - * & & 5 e e F V.o.x P 3.*.tX;XOX6X6X;XI.1.o   y 1.o.L.aX;X+XgX).h./.eXE.K : 5 8 ; d 8 o O   o 2 ! %XrXkXAX0Xg.>X/."
};
