/* XPM */
static char *result[] = {
/* columns rows colors chars-per-pixel */
"64 64 250 2 ",
"   c #070604",
".  c #0B0504",
"X  c #070804",
"o  c #0A0906",
"O  c #0C0C0A",
"+  c #140503",
"@  c #1B0302",
"#  c #140906",
"$  c #1A0806",
"%  c #130D0B",
"&  c #1C0D0B",
"*  c #0F100D",
"=  c #12110D",
"-  c #1C120E",
";  c #0E1112",
":  c #141512",
">  c #1B1513",
",  c #171915",
"<  c #1B1A15",
"1  c #161A1A",
"2  c #1C1D1A",
"3  c #240303",
"4  c #2B0303",
"5  c #230C0B",
"6  c #280808",
"7  c #2C0B0B",
"8  c #330303",
"9  c #3C0503",
"0  c #360806",
"q  c #330C0B",
"w  c #3B0D0C",
"e  c #24120E",
"r  c #2B120E",
"t  c #37110F",
"y  c #310D10",
"u  c #241412",
"i  c #2C1412",
"p  c #241915",
"a  c #2B1916",
"s  c #241D1B",
"d  c #2C1D1A",
"f  c #351413",
"g  c #3B1413",
"h  c #341916",
"j  c #341D1B",
"k  c #3C1818",
"l  c #3C1C1B",
"z  c #1F211D",
"x  c #23221E",
"c  c #2B221E",
"v  c #33221E",
"b  c #3C211E",
"n  c #1F2120",
"m  c #252522",
"M  c #2B2522",
"N  c #272824",
"B  c #2A2925",
"V  c #2D2C29",
"C  c #332522",
"Z  c #3C2422",
"A  c #322925",
"S  c #3A2825",
"D  c #322B2A",
"F  c #382C28",
"G  c #31312D",
"H  c #363532",
"J  c #440A06",
"K  c #490906",
"L  c #430C0A",
"P  c #560A04",
"I  c #48140B",
"U  c #53120C",
"Y  c #58150B",
"T  c #490F12",
"R  c #441413",
"E  c #4C1514",
"W  c #431916",
"Q  c #4D1913",
"!  c #431D1B",
"~  c #4C1D1B",
"^  c #541411",
"/  c #551A14",
"(  c #5C1B14",
")  c #541D1B",
"_  c #5B1E1B",
"`  c #650D02",
"'  c #6D1304",
"]  c #67170B",
"[  c #7A1B03",
"{  c #761908",
"}  c #631B13",
"|  c #6B1E14",
" . c #691E19",
".. c #771E12",
"X. c #57220F",
"o. c #42211F",
"O. c #4C211E",
"+. c #572419",
"@. c #5B221C",
"#. c #69220A",
"$. c #792308",
"%. c #682616",
"&. c #63231C",
"*. c #6B241C",
"=. c #772517",
"-. c #73261C",
";. c #7D291C",
":. c #73351E",
">. c #491F20",
",. c #432423",
"<. c #4B2423",
"1. c #482827",
"2. c #532523",
"3. c #5C2524",
"4. c #532826",
"5. c #5C2A27",
"6. c #552C29",
"7. c #632523",
"8. c #6A2621",
"9. c #642A23",
"0. c #6C2A24",
"q. c #652828",
"w. c #762721",
"e. c #732B23",
"r. c #7C2C22",
"t. c #663424",
"y. c #7A3424",
"u. c #861C07",
"i. c #882508",
"p. c #952707",
"a. c #8D3207",
"s. c #983507",
"d. c #842515",
"f. c #882A15",
"g. c #832A1C",
"h. c #8B2C1C",
"j. c #942E18",
"k. c #8A3319",
"l. c #973615",
"z. c #9C3214",
"x. c #94341C",
"c. c #9B341C",
"v. c #9C3A1C",
"b. c #A43A09",
"n. c #A43817",
"m. c #A33B1D",
"M. c #AB3D1D",
"N. c #832E23",
"B. c #8A2E21",
"V. c #843125",
"C. c #863726",
"Z. c #8B3224",
"A. c #943423",
"S. c #9A3623",
"D. c #953A25",
"F. c #9C3A24",
"G. c #A43C24",
"H. c #AA3C22",
"J. c #AA3C28",
"K. c #B03F25",
"L. c #95421D",
"P. c #AA4406",
"I. c #B74C09",
"U. c #B95205",
"Y. c #A84518",
"T. c #B64A18",
"R. c #AC531D",
"E. c #BA551D",
"W. c #8B4425",
"Q. c #984722",
"!. c #A64524",
"~. c #AB4324",
"^. c #B24424",
"/. c #B44B23",
"(. c #B94C25",
"). c #AA5224",
"_. c #B25222",
"`. c #BC5324",
"'. c #BD5A23",
"]. c #BD6025",
"[. c #C55A08",
"{. c #CB5711",
"}. c #C75819",
"|. c #CA6707",
" X c #D66B0B",
".X c #CB780A",
"XX c #D4780E",
"oX c #CB6319",
"OX c #D66818",
"+X c #DB7814",
"@X c #DC741C",
"#X c #E2721C",
"$X c #E47A1A",
"%X c #C55922",
"&X c #CB6323",
"*X c #D16522",
"=X c #D36A23",
"-X c #D96D23",
";X c #DD7423",
":X c #E47922",
">X c #CD8815",
",X c #D78818",
"<X c #CC931E",
"1X c #D8921D",
"2X c #E6871D",
"3X c #E5901E",
"4X c #D39523",
"5X c #D79826",
"6X c #E98924",
"7X c #F28824",
"8X c #EA9627",
"9X c #E49C2B",
"0X c #F49729",
"qX c #EA9F33",
"wX c #CDA62D",
"eX c #D7A32C",
"rX c #D6AA34",
"tX c #DBAB34",
"yX c #D7B43C",
"uX c #EEA12D",
"iX c #E8A935",
"pX c #F7AA36",
"aX c #E9B33C",
"sX c #F5B43C",
"dX c #D8BB45",
"fX c #D9BC56",
"gX c #E0AE43",
"hX c #E7B846",
"jX c #F8BA44",
"kX c #E8BE59",
"lX c #DAC147",
"zX c #D9C558",
"xX c #E7C44C",
"cX c #F6C44B",
"vX c #F8C955",
"bX c #EED15A",
"nX c #F8D35C",
"mX c #D9C666",
"MX c #D9CC7C",
"NX c #F8D767",
"BX c #F0D26B",
"VX c #EAD57A",
"CX c #FBE47A",
"ZX c #DAD28F",
"AX c #EADB8F",
"SX c #F7E589",
"DX c #F2E495",
"FX c #D8D6B1",
"GX c #E4E0B4",
"HX c #D8DBCB",
/* pixels */
"H D G G G D F F S ,.,.1.4.<.<.5.6.6.6.6.4.1.6.1.o.o.<.O.6.6.6.6.6.5.6.6.6.6.l l ,.f r 5 u 5 & u > > 2 p = O O = : 2 x N B N m z ",
"m B N m N M B C C Z b >.1.O.O.4.4.4.2.<.<.<.<.o.k ! O.O.3.3.5.3.5.5.3.2.4.2.! ! ! y 6 3 5 & $ - > & > , = O O = , , 1 m m m z , ",
"N N N x 2 2 d C C Z ,.1.<.O.4.6.4.4.2.2.<.<.O.O.W W O.@.3.7.7.q.q.q.q.q.3.4.2.O.! y 7 3 6 3 $ u & % % % % 1 : m m : = s m x 2 2 ",
"x m m z * * s M C Z 1.1.1.2.6.6.6.4.2.2.2.2.4.2.O.) O.@.)  .8.8.q.q.8._ ) ) 3.2.~ W y y y u & - & + % > p x n V B < : 2 2 x 2 2 ",
"< z z : X X , M j C Z ,.<.4.4.4.4.4.4.2.2.4.2.2.3.3.&._ U ( *.*.0.*.&.( T ) _ ) ~ >.! l o.j u e & & p c M D D B M m x < < m 2 m ",
"2 : , O X   % p s d h j <.<.4.4.4.2.4.2.4.2.4.q.q.q.q. .Y } -.-.-.-.*.( K K _ _ 4.2.<.>.,.,.h u p a v A D D D M m V B , < m m B ",
", O O O O X o = u p d f ! ,.1.<.2.2.2.O.2.2.) 3.0.e.e.w.| =.r.r.r.;.-.| P K _ q.3.2.<.1.1.,.l d v v C A M D M x z B m * < m m B ",
":   o O ; * % - > d j h l k k W >.O.O.~ O.) E / 8.e.r.r.g.N.V.V.V.V.r.-. .Y ( _ _ ) ! ! ,.,.Z l C S B d s p 2 : , 2 2 o O 1 2 m ",
"O O * , : z < - p v v b k f 7 q k ~ ! W O.) T P  .N.N.Z.B.A.A.j.A.Z.Z.V.N.w._ } ^ E R ! ! Z l Z Z C d p = # # O * O o   o * : , ",
": , < x z c x < s d a v h t q 3 g ! O.! 2.@.( }  ...N.Z.A.S.S.S.A.A.A.Z.V.N. .} K T E ! >.,.Z Z j h s > + . .   X X   o : O * , ",
"x x x N x x x - < u u i h h f 7 g <.~ 2.3.7.8.-...' d.A.J.S.S.S.S.S.A.A.B.N.r. .U T 2.) <.<.,.Z b a e & # o o # o o o : z : : < ",
"V N x x z , - = - > p d b b o.k ! <.<.2.3.8.-.g.g.d.u.d.J.J.J.J.S.c.h.h.d.N.N.w. ._ q.3.<.1.1.,.Z j 5 $ > < < < < , , z x z : z ",
"G N z z < * = # = p c v b S o.,.>.,.2.4.q.8...d.B.j.u.u.n.n.n.j.z.j.p.u.d.{ d.N.r.e.q.q.2.1.1.1.,.S i - p v v c x c x N x < , , ",
"G N , < z < - = < c C v b ,.1.o.,.,.2.2.q.w...d.A.J.z.u.p.p.p.p.p.u.u.u.{ ' d.B.r.w.8.7.4.4.1.1.,.,.v i c A B c B B B N x , = o ",
"G x * < x m p p c c v v S 1.F o.,.<.2.3.q.r.d.j.H.K.n.p.u.p.p.p.p.p.d.u.u.u.d.d.=. . ._ 2.>.o.l l Z v d e p p < x c x z , = o * ",
"G z O , N N N c A v c c b S S o.,.1.2.3.w.N.j.c.K.K.p.p.p.p.p.n.n.G.n.j.z.j.j.d...| ( ^ T w y y h h i i & # % # > z = O * * * < ",
"G x * 2 n B M M C v c u d v v b o.! Q 3.w.B.S.G.^.M.b.b.p.n.n.M.K.~.K.n.J.H.G.f.d... ._ J 8 6 q k h i a e & & > > > : O o o ; 2 ",
"G N n n n N d x B v v - 5 r e h f q w ) *.h.F.H.M.b.b.b.b.M.M.H.H.H.J.M.J.H.G.S.A.B.w. .K 8 8 W >.,.o.Z j d c c c s 2 < : o O 2 ",
"G B B N n M s s s p d + + e 5 i 7 0 L U ] f.c.n.b.b.b.{.b.M.n.H.m.G.J.~.K.K.J.H.S.A.N.w.^ L T >.1.1.1.,.,.F D D D M D m 2 , , 2 ",
"V B V N x M M s > & & + @ i r g 7 q Q Y ' f.p.s.M.T.}.M.T.p.p.n.c.j.H.H.K.K.K.J.S.A.d. .8._ 3.6.4.1.1.,.S Z C C D D D B B N m n ",
"m B m M M c s p & + + 5 i h l l k Q _ } ..f.p.s.T.}.}.K.T.z.a.l.x.x.G.G.H.H.H.H.G.j.....e.q.q.3.4.4.1.1.,.Z S D D A V V V V V B ",
", N z m m s < p - # & j h j l l >.2.&.| h.m.p.b.T.}.}.}.(.m.j.k.V.h.x.x.n.M.M.n.S.S.d...r.0.q.5.2.4.1.1.1.S S C A A V V V V B G ",
"O 2 2 2 p > > p i a a v j i h l <.@.&.;.x.m.b.P.I.}.}.}.T.m.k.;.;.;.d.x.c.M.K.H.G.G.h.B.r.0.3._ ! >.>.1.1.S S D M M M B m N B G ",
"o : 1 % : - p c v v b b h 6 7 l ! / %.g.x.b.T.T.I.}.}.`./.v.k.#.| #.=.k.G.Y.^.^.K.J.S.B.N.w.7.) T w >.,.b j C c c x M m < n N V ",
": ; : o # p c b S b b v j y 6 ! R K | Z.l.n.T.}.[.{.}.E.Y.k.-.%.Y ] -.Z.!.~.(.(./.~.G.D.V.r.8._ E w w f f r e d x c x < , s m n ",
"2 , : O # x c v b v b b o.f y ! E U | S.v.Y.}.OX{.oX}.T.Y.=.X.( Y X.y.C.F.!.(.(.(.~.G.F.Z.r.e.q.@.R 0 4 3 @ @ j c c n : , M n : ",
"V x < - - p a c h b b o.,.h g ~ _ ( ' F.~.E.oX-XOXOX*XT.a.%.I Y +.&.e.C.Q.^.(.%X`./.!.F.B.N.w.0.5.2.w 3 @ 3 e v D C x < m N , ; ",
"G B x x x p r r h ! o.o.! k ! ) &.-.{ m./.}.-X#X#X#XoXY.a.X.I / *.t.t.y.D.~.(.`.`.`.!.G.h.N.w.w.9.3.t 4 3 f j C c M c M N N : , ",
"G B c B c c v v h b o.h f k ~ ) *.N.h.l.E.}. X X X X{.s.[ U J +.9.t.&.y.F./.%X`.E.`./.F.j.d.w.e.3.Q 0 3 y ,.S u s M B M N N 2 x ",
"G B V A B v A b b f o.t 7 R E _ } g.v.j.T.oX X X X X[.s.#.K I t.9.t.+.e.D.!.%X%X}.%X/.Y.x.h.N.*._ J 8 q o.S Z & u D A M x N m m ",
"G N B B A A S o.o.t o.q 4 w L ^ | h.c.s.I.|. XXX$X#X[.s.#.J I @.5.&.X.&.k.n.}.}.}.%X`.Y.F.h.r. .T 9 w W >.,.Z e d D B 2 1 m z 2 ",
"G N B c c v v f f 7 t q 8 0 J U | d.z.b.I. X+X2X2X$X[.p.] I X.+.+.+./ X.f.n.{.*X-X*X'./.G.x.=.] K 9 E <.,.,.S p v M m 2 , 2 2 1 ",
"G x c x < e & 5 6 4 q q w J I U ] d.z.T.[.$X3XuX0X7XOXs.#.I Q Q Q I Q X.k.T.{.OX#X-X%X/.!.x...` K L 2.<.,.,.b d c M n n 2 : 1 x ",
"N z z - # + @ @ 3 3 q w Q E ( } =.p.n.%X X2XuXpXpX0X:XY.#.X.X.I L I I X.a.T.{.#X$X;XoX`.Y.f.{ P K J ~ ! l h j d s s s m m ; 1 M ",
", : = o . + + 3 3 6 k W O.3.9.e.k.n./.*X:X0XaXjXsX0X:X}.:.t.+.Q L J I #.l.I. X:X$X:XOXT.l.i.{ P K 9 R w 6 5 p p , 1 s m N 1 2 N ",
"O o X O + + - r y g <.O.2.9.0.V.A.H.'.-X7XuXjXcXcXpX6XoXW.t.t.X.I Q I #.s.{.$X7X2X2XOXY.s.j.[ ] Y L 0 q 6 5 5 & : > 2 2 n m n B ",
"O o o = - - e i h ! <.2.+.9.0.y.S.H.%X-X6XpXcXnXcXpX7X*XW.t.t.t.+.+.+.$.P.oX2X0X7X$X|.I.M.z.h.=.*./ 0 y f i $ # % , 2 , 1 m 2 B ",
"* o o , p p p a h k o.O.2.9.e.r.S.Y.%X#X8XpXcXBXnXjX7X*XQ.t.X.t.t.&.t.a.I.OX2X6X8X+X|.}.R.G.S.r.0.3.g k b j e # + < x 1 : 2 1 n ",
"- = = < x c u e i q k O.@.9.e.r.S.^.%X#X6XsXnXBXBXjX7XOXQ.t.X.4.t.t.y.Y.{.$X2X3X1XXX+X=X`.~.A.=.0.7.<.,.,.Z j # % d m m ; : : 1 ",
"c < < , c c e @ 6 6 q W ~ 5.0.V.G.^.%X#X8XsXNXSXCXjX0X-XR.:.+.X.+.y.Q.%X#X7X1X4X1X,X$X-X'.~.A.w.e.3.2.<.1.S C - > M M N O o ; O ",
"G x x < c c p - @ 3 6 w g _ 0.V.S.^.&X#X0XjXNXSXSXcX0X:XR.L.:.X.X.W.).oX:XpXqX5X4X,X6X-X'.!.D.V.0.3.<.,.,.S C s m M x z O X o O ",
"G B N x N v v # @ 3 4 0 w ) 8.V.G.^.%X#X0XjXnXDXSXnXpX7X].!.W.%.:.L.'.@X7XjXhXtX5X,X+X-X'.~.D.V.8.3.2.,.S Z S c M x * : O X o o ",
"G B N N c A A # @ 3 4 4 0 Q @.;.S.M.}.@X8XjXnXDXSXNXpX7XoXR.Q.W.k.R.oX+X8XjXfXyXeX1X X-X'.~.S.V.8.3.2.,.Z C C C c s O O : o O : ",
"G B N N B c c # @ @ 3 4 8 L U ] f.M.I.OX3XaXnXSXSXNXsX7X:X].).).R.I.@X2XqXkXkXyXrX4XXX-X'.~.A.N.8.3.<.Z j j C M m x : : 1   : m ",
"G N N N B B z o @ @ 6 8 w I U ] [ z.I.oXXXiXvXCXSXNXjX0X2X=X].].E.|.2X2XaXkXfXyXtX9X6X=X`.~.A.r.0.3.1.l a j C M m m z 2 1 O 2 G ",
"G N N N c c # + 5 5 7 g R ) _ | { p.b.}.XX8XcXNXCXNXcX3X,X@XoXoX@X$X6X9XkXVXmXdXrX9X6X=X/.!.A.N.0.3.>.b v v C M M N m 2 : 1 m H ",
"V N N x 2 < . # i d h >.2.9.0.-...p.n.OXXX3XjXnXNXNXcX8X,X$X@X$X6X0XqXgXBXVXfXyXwX3X+XoXY.v.k.;.q.2.>.b Z Z M c M m B : O m m G ",
"B z m z * # . # j v b <.2.5.q.r.B.z.T.oX X3XsXcXnXnXcXiX9X6X6X0X0XjXhXkXAXVXfXrX<X>X|.T.l.f.=. ._ 2.! b Z C d s c m N O = B m G ",
"z , 2 : X .   p A Z ,.<.2.5.7.r.A.G./.%XoX@X9XaXxXvXcXsXiX8X9XpXjXcXzXAXDXZXlXwX<X.XU.b.p.d.' } _ ~ ! o.Z v s c n M n   1 V m G ",
": * ; O X X = d C C Z 1.4.2.q.y.Z.F.^.%XoX+X+X5XiXhXcXaXiXiXiXjXvXBXVXDXZXmXyXwX>X|.U.b.i.{ ` ( T ! l o.Z M d n M n ; o 2 B M G ",
"; O O O O = < M A C Z ,.<.3.7.0.N.F.K.T.*X-XXX>X5XrXaXrXtXaXhXkXBXVXDXGXZXmXyXwX>X[.P.s.i.[ ' ^ E ! >.o.b j c M M m O o m m N D ",
"; * * : < s x M C v Z ,.<.6.5.0.r.A.G.Y.%X-X@XXX4X4X5X5XtXhXgXfXAXAXGXFXMXlXwX<X.XU.P.a.u.{ ] P ^ ~ ,.b j j C D D m . . m n N D ",
": * = : 2 B M c c c b Z ,.<.3.0.w.Z.c.m.`.&X;X+X6X4X<X5XrXdXfXmXZXFXHXFXzXyXwX>X|.U.P.i.[ ' ` K T R o.,.v v S M M m   o N n N V ",
"; O ; O 2 N m x s c Z ,.o.~ 2.7.0.V.S.G.(.%X=X:X6X8X1X5XwXdXfXMXFXHXFXMXlXrX<X.X|.P.s.i.[ ' P P 9 0 y o.j d C c s n   ; N m N N ",
"X O o   2 N m s d c C Z l ~ +.7.q.N.Z.J./.`.&X;X6X8X8X5XiXrXfXMXFXFXZXzXyXrX>X.XU.P.a.i.{ ..} ^ T 4 3 y y u u > : ;   O m N m V ",
"X o O ; 2 m x x c c C v l ! 2.3.7.y.V.S.~.!.'.*X;X6X8XiXaXyXdXmXZXZXzXdXyXeX>X|.P.s.i.[ { =.&. .T 8 4 6 5 5 % > . .   o 1 N n V ",
": : 1 n 2 m m M c c d j b o.2.3.7.e.N.Z.x.m./.'.=X:X7XqXsXaXyXzXBXBXlXyXtX5XXXU.P.a.i.[ ' |  ._ T w g y y u % + + .     % 2 z V ",
"s n m B m s m M c c p a b ,.<.2.3.0.r.N.f.G.~.T.&X;X:X8XpXaXtXyXbXbXxXaXiX3X XI.s.i.$.' ' Y U T L T ~ ,.b j 5 $ + .     X : 1 B ",
"V N m M m m m M M c a h Z ,.~ ~ ) 7.e.w.f.S.~.R.'.&X;X6XqX9X4XtXxXxXaXiXqX,XoXP.a.i.[ ' ` P K K 9 w R >.1.Z a u & % o     o * : ",
"G m 2 N B N N M M B c j l l k g E 7.8.e.N.A.F.!.`.%X*X:X6X>X>XeXaXtXiX9X6X@X].P.i.[ ' ' P P K 9 9 8 y k ,.Z b j d < - O   X X X ",
"V 2 ; 2 V V B M d D D d j f 7 7 T 3.7.w.r.B.S.Q.!.`.&X=X@X|..X9XuX8X9X6X@XoX'.L.$.[ ` ` P K J 9 w 8 8 y k Z Z C C c c 2   X X   ",
"n 1 ; , m x n s s s d d e 5 6 6 y ) _ 7.e.;.k.F.!./.'.E.[.[..X8X5X,X2X@X}.E.R.!.$.{ ] P K K J 9 R 0 4 4 6 h b j C M D V ; o O O ",
"O 1 1 = < : ; ; % & % & 5 5 f y y R E _ 8.-.;.Z.D.!.R.T.P.U.|.@X@X+X;X&XE.R.Y.k.g.=.| U K K J 9 L 0 4 4 3 6 r i v M D B 2 , 2 1 ",
"o 1 z : : % O . # . # $ & e b f 7 g ! E q.0.-.V.A.D.v.Y.s.P.I.}.oXOX=X&X_.).W.g.r.r.w.P K K J w L w 4 4 3 3 3 e C D D G B n V V "
};
