/* XPM */
static char *_72df97b9cd44521b6318dcb3c4e96609qQBUCUq35iTU9i2[] = {
/* columns rows colors chars-per-pixel */
"64 64 135 2 ",
"   c #0E0E08",
".  c #140E05",
"X  c #1B0F07",
"o  c #130E09",
"O  c #1D0F08",
"+  c #171106",
"@  c #1C1207",
"#  c #15110A",
"$  c #1C130B",
"%  c #1E180F",
"&  c #271607",
"*  c #23150C",
"=  c #29170D",
"-  c #25190D",
";  c #2B190D",
":  c #32150D",
">  c #331B0D",
",  c #3A1D0B",
"<  c #221711",
"1  c #251A11",
"2  c #2B1C12",
"3  c #331D12",
"4  c #3A1D11",
"5  c #2C2114",
"6  c #342216",
"7  c #3B2113",
"8  c #372519",
"9  c #3C2719",
"0  c #33281E",
"q  c #3B281B",
"w  c #452415",
"e  c #41271A",
"r  c #462B1B",
"t  c #4C2B1D",
"y  c #542E1C",
"u  c #53321D",
"i  c #5C331F",
"p  c #62351D",
"a  c #453126",
"s  c #4A3323",
"d  c #523424",
"f  c #5F3320",
"g  c #5C3D25",
"h  c #57352B",
"j  c #55392E",
"k  c #5C3C2C",
"l  c #5F3F31",
"z  c #673726",
"x  c #643A23",
"c  c #6C3B23",
"v  c #673F2A",
"b  c #6B3E2A",
"n  c #703B20",
"m  c #603C32",
"M  c #64442E",
"N  c #6B432D",
"B  c #734024",
"V  c #73452D",
"C  c #7C432C",
"Z  c #7C4B2F",
"A  c #654231",
"S  c #6C4531",
"D  c #654830",
"F  c #6D4A33",
"G  c #6F4F3D",
"H  c #744631",
"J  c #794632",
"K  c #734C35",
"L  c #7C4D35",
"P  c #754D39",
"I  c #7E4E39",
"U  c #735037",
"Y  c #7D5036",
"T  c #755038",
"R  c #7C533A",
"E  c #7E593D",
"W  c #7E5542",
"Q  c #80462D",
"!  c #80482E",
"~  c #814F36",
"^  c #804F39",
"/  c #884E3D",
"(  c #904F3D",
")  c #815037",
"_  c #84523A",
"`  c #8A563E",
"'  c #84593F",
"]  c #8D593F",
"[  c #92573D",
"{  c #915B3E",
"}  c #855642",
"|  c #8B5641",
" . c #875A41",
".. c #8E5A41",
"X. c #895749",
"o. c #875848",
"O. c #8E5B48",
"+. c #905643",
"@. c #9B5743",
"#. c #935C42",
"$. c #975D46",
"%. c #985E43",
"&. c #995C44",
"*. c #985E46",
"=. c #9C5D46",
"-. c #935D49",
";. c #9A5E4B",
":. c #8D6047",
">. c #8E6049",
",. c #926146",
"<. c #956147",
"1. c #926447",
"2. c #976446",
"3. c #986043",
"4. c #9A6144",
"5. c #9B6045",
"6. c #9B6247",
"7. c #9E6547",
"8. c #976148",
"9. c #95624B",
"0. c #96664A",
"q. c #9D6248",
"w. c #9E614A",
"e. c #996749",
"r. c #9F6549",
"t. c #9D644C",
"y. c #9D684A",
"u. c #9E694C",
"i. c #976151",
"p. c #A0674A",
"a. c #A1644C",
"s. c #A0674C",
"d. c #A16652",
"f. c #A46A53",
"g. c #A16A5A",
/* pixels */
"$.$.$.$.$.$.$.$.&.&.$.&.$.$.$.&.&.&.&.%.#.#.&.&.&.&.&.&.=.&.&.&.&.&.&.&.&.&.$.$.$.6.6.6.6.6.6.6.&.=.=.6.6.6.6.6.6.6.6.6.6.6.3.6.",
"#.#.#.$.$.$.$.$.$.$.%.%.#.#.#.#.#.%.%.&.&.&.#.%.&.&.&.&.&.&.&.&.&.&.6.6.6.6.<.<.<.<.3.3.3.<.3.6.&.&.&.6.6.6.6.6.6.6.6.6.6.6.6.6.",
"#.#.#.#.#.#.#.#.#.#.#.#.#.#.#.#.#.#.%.%.%.%.%.%.&.&.&.&.<.<.<.<.6.&.&.&.&.6.<.<.<.3.3.3.<.<.<.6.&.&.&.6.6.6.6.6.6.6.6.6.6.6.6.3.",
"{ { { #.#.#.#.#.#.#.#.#.#.#.#.#.#.%.%.%.%.%.%.%.&.&.&...1.0.0.0.e.6.&.&.&.&.$.$.$.#.#.#.6.6.6.&.%.%.&.&.=.=.=.=.=.=.6.3.6.6.6.6.",
"{ { { { { { { { { { #.#.#.#.#.#.#.#.%.%.%.%.%.%.&.w.#.: O * * * X x t.&.&.6.<.<.$.$.3.3.3.3.$.&.&.&.&.=.=.=.=.=.=.=.6.3.6.6.6.6.",
"{ { { { { { { { { { #.#.#.#.#.#.#.#.#.#.#.#.#.%.&.&.#.C b N x b b ) 6.&.&.<.<.<.$.$.#.<.#.3.$.&.&.&.&.&.=.=.&.&.&.&.6.3.6.6.6.6.",
"{ { { { { { { { { { #.#.#.#.#.#.#.#.#.#.#.#.#.#.#.#.#.s.u.u.u.u.u.e.$.&.&.<.$.$.$.$.<.<.#.#.#.$.&.&.&.&.&.&.&.&.&.&.6.6.6.6.6.6.",
"{ { { { { { { { { { #.#.#.#.#.#.#.#.#.#.#.#.#.#.#.#.#.#.#.#.#.#.#.#.$.$.$.<.$.$.$.$.<.<.#.#.$.$.&.&.%.%.%.%.%.%.&.&.6.6.6.6.6.6.",
"#.#.#.#.#.#.#.#.#.#.#.#.#.#.#.#.#.#.#.#.#.#.#.#.#.#.#.#.#.#.#.#.#.#.$.$.$.$.$.$.<.$.<.<.<.<.$.$.&.&.&.&.&.%.&.%.&.&.6.6.6.6.6.6.",
"....................#.#.#.#.#.#.#.#.#.#.#.#.#.#.#.#.#.#.#.#.#.#.#.#.$.&.$.$.#.#.#.#.#.#.#.#.#.#.&.&.=.6.%.&.&.&.&.&.6.6.3.3.3.3.",
"] ] ] ] ] ] ] ] ] ] #.#.#.#.#.#.#.#.#.#.#.#.#.#.#.#.#.#.#.#.#.#.#.#.$.&.$.$.#.#.#.#.#.#.#.#.#.#.#.&.{ [ 6.&.&.&.&.&.6.6.6.3.6.6.",
"] { L ` #.#.#.2.e.<.<.<.e.#.{ #.#.#.#.#.#.#.#.#.#.#.#.#.#.%.%.%.%.%.=.&.$.$.#.#.#.#.#.#.#.#.#.#.#.r.Q w ..&.&.&.%.&.6.6.6.6.6.6.",
"#.! ; * $ * = * * = * $ $ Z #.#.#.#.#.#.#.#.#.#.#.#.#.#.6.p.r.p.r.r.s.t.8.#.#.#.#.#.#.#.#.#.#.#.#.p.C 4 R %.&.&.%.%.%.%.%.%.%.%.",
"#.~ n B B c x p p x c V V ) #.#.#.#.#.#.#.#.#.#.#.#.#.w.c * @ @ @ @ @ > _ t.#.#.#.#.#.#.#.#.#.#.#.r.C 7 I #.&.&.%.%.%.%.%.%.%.%.",
"` #.<.<.,.,.,.0.e.#...#.,.#...#.#.#.#.#.#.#.#.#.#.#.#.6.J g g g g g g x ` 6.#.#.#.#.#.#.#.#.#.#.#.r.C 7 I #.%.%.%.%.#.#.#.%.6.#.",
"` ] #.........#.,.` _ _ ` ] ....#.#.#.#.#.#.#.#.#.#.#.#.w.r.r.p.p.p.r.y.$.#.#.#.#.#.#.#.#.#.#.#.#.r.C 7 I $.&.#.%.%.#.#.#.%.6.6.",
"` { { ] ] ] .._ Z ] ` ` ] ......#.#.#.#.#.#.#.#.#.#.#.#.#.#.#.#.#.#.#.#.#.#.#.#.#.#.#.#.#.#.#.$.&.s.C 4 I ;.;.&.&.#.#.#.3.3.3.#.",
"` [ { { ] ] #.I ; R  .|  ...........#.#.#.#.........#.#.#.#.......#.#.#.#.#.#.#.#.#.#.#.#.#.<.r.r.f.+.t W d.d.f.w.#.#.#.3.3.3.#.",
"` ` ....#.#.$.I = _ ` | ..........................................#.#.#.#.#.#.#.#.#.#.#.#.w.C : @ . # o # # # $ h s.%.#.#.#.#.#.",
"` ` ` ` ..#.$.J * .._ ` ............#.#.#.#.#.#...#.#.#.#...#...#.#.#.#.#.#.#.#.#.#.#.#.#.<.~ y r d l k h m k j R r.#.#.#.#.#.#.",
"| | | |  . .1.N 2 :._  .|  . .| ..O.#.#.#.#.,.#.#.#.#.#.#.#.#.#.O.#.#.#.#.#.#.#.#.#.#.#.#...#.7.r.w.s.t.s.d.d.f.w.#.#.#.#.#.#.#.",
"F M F R R R E g 2 U M M M M D K Y Y R R R R Y K K H F F M k d s s s ) #.#.#.#.#.#.#.#.#.#.#.#.#.#.#.#.#.#.#.#.#.#.#.#.#.#.#.#.#.",
"7 ; - = = - * $ * * = = = = * * @ * * * * @ @ @ @ * * * * ; > , , , I <.#.#.#.#.#.#.#.#.#.#.#.#.#.#.#.#.#.#.#.#.#.#.#.#.#.#.#.#.",
"_ N d K S S K R R R R R I R 2 v K H S S S L I I I Y Y Y Y Y Y Y Y ) ` ..#.#.#.{ ........#.#.#.#.#.#.#.#.#.#.#.#.#.#.#.#.#.#.#.#.",
"#.N 3 >.O.O.O.O.O.O.O.O.O.O.e d O.O.O.O.O.O.#.#.#.#.#.#.#.#.#.#.#.#.#.#.#.#.] ] ........#.#.#.#.#.#.#.#.#.#.#.#.#.#.#.#.#.#.#.#.",
"O.V 2  .| | | | | | | | | ..r d O...| | | O.......#.{ { { { { { { { ........] ] #...................................#.#.#.#.#.#.",
"O.V 3 _ ....................9 k O.| | | | O.........] ] ] ] ] ] { { ............#...................................#.#.#.#.#.#.",
"O.J 2 } ....................6 M O.| | | | | ........] ] ] ] ] ] ] ] ............] ..................................#.#.#.#.#.#.",
"O.V 2 O.| | | | | | | | | ..2 H O...........#.......] ] ] ] ] ] ] ] ............] ] ] ] ............................#.#.#.#.#.#.",
"O.b 2 #.| | | | | | | | | O.1 L O...+.+.+.+.#.....` ` ` ` ` ` ` ` ` ] ] ] ] ] ] ] ] ] ] ......] ] ] ] ..............#.#.#.#.#.#.",
"#.} A -.-.-.-.-.-.-.-.-.-.-.` O.O.O.O.O.O.O.| ] ..` ` ` ` ` ` ` ] ..] ] ] ] ] ] ] ] ] ] ........] ] ..................#.#.#.#.#.",
"c 3 = = = = 2 3 3 3 = = * $ $ $ $ * * * * * b ` ..` ` ` ` ` ` ] ` ` ] ] ] ] ] ] ] ] ] ] ....................................#.#.",
"p y * = : ; = = = = ; 3 4 7 7 7 3 3 ; ; = > N ....` ` ` ` ` ` ..) y ` #.] ] ] ] ] ] ] ] ..........................] #.#...#.#.#.",
"....| | ....| | ....| ..| | | | | ..#.#.#.#.` _ ..` ` ` ` ` ` .._ * ` #.` ] ] ] ] ] ] ] ............................_ _ #.#.#.#.",
"` ` ` ` ` ` ` ` ` ` ` ` ` ` ` ` ` ` ` ` ` ` ` ` ` ` ` ` ` ` ` .._ - ) ..` ] ] ] ] ] ] ] ] ] ] ] ] ] ] ] ] ] ] ] ] ,.V 3 #...#.#.",
"_ ` ` ` ` ` ` ` ` ` ` ` ` ` ` ` ` ` ` ` ` ` ` ` ` ` ` ` ` ` ` .._ * _ ..` ] ] ] ] ] ] ] ] ] ] ] ] ] ] ] ] ] ] ] ] <.V 2 | ] ] ] ",
"_ _ _ ` ` ` ` ` ` ` ` ` ` ` ` ` ` ` ` ` ` ` ` ` ` ` ` ` ` ` ` ` _ * _ ] ` ` ` ` ` ` ` ` ` ` ` ` ` ` ` ] ] ] ] ] ] <.N 2  .] ] ] ",
"_ _ _ ` ` ` ` ` ` ` ` ` ` ` ` ` ` ` ` ` ` ` ` ` ` ` ` ` ` ` ` ` R * L ] ` ` ` ` ` ` ` ` ` ` ` ` ` ` ` ] ] ] ] ] ] <.N * ,.] ` ` ",
"_ _ _ _ _ _ _ _ _ _ _ _ _ _ _ _ _ ` ` _ ` ` ` ` ` ` ` ` ` ` ` ` Y ; S ` ` ` ` ` ` ` ` ` ` ` ` ` ` ` ` ` ` ` ] ] ] <.b * 0.{ ` ` ",
"_ _ _ _ _ _ _ _ _ _ _ _ _ _ _ _ _ ` ` _ _ ` ` ` ` ` ` ........O.R 3 A O.#.#.O.O.#...` ` ` ` ` ` ` ` ` ..e.e.e.e.e.1.g % 1...e.e.",
"_ _ _ _ _ _ _ _ _ _ _ _ _ _ _ _ _ ` ` ` ` ` _ ` ` ` ~ L L L L L H 6 d H H S M D F R | | | ` ` ` ` ` #.~ * $ % * # % X . * @ # % ",
"_ _ _ _ _ _ _ _ _ _ _ _ _ _ _ _ _ ` ` ` ` ` _ _ ` #.i O $ $ * $ @ . . $ $ $ $ @ @ N -.} | ` ` ` ` ` ..~ w % % * 1 2 2 5 2 5 2 2 ",
"_ _ _ _ _ _ _ _ _ _ _ _ _ _ _ _ _ ` ` ` ` ` ` _ ` ` ) L K K T R R R R R R _ ` } } o.} } ` ` ` ` ` ` _ | ,.| R R K K K P P F F _ ",
"_ _ _ _ _ _ _ _ _ _ _ _ _ _ _ _ _ _ _ _ _ _ _ _ _ _ ` ` ` ` ` } } } } } } | @.b S -.} } } ` ` ` ` ` ` ` ` ` ` ` ` ` ` ` ....` ` ",
"_ _ _ _ _ _ _ _ _ _ _ _ _ _ _ _ _ _ _ _ _ _ _ ` _ _ _ _ _ _ ` | | | | | | | @.9 2 -.} } | ` ` ` ` ` ` ` ` ` ` ` ` ` ` ` ` ` ` ` ",
"_ _ ) _ _ _ _ _ _ _ _ _ _ _ _ _ _ _ _ _ _ _ _ _ _ _ _ _ ` ` ` ` | | | | +.| @.9 # -.} } | ` ` ` ` ` ` ` ` ` ` ` ` ` ` ` ` ` ` ` ",
") ) ) ) ) ) ) ) ) ) _ _ _ _ _ _ _ _ _ _ _ _ _ _ _ _ _ _ _ _ _ ` ` ` | ....` &.6 % -.} ` ` ` ` ` ` ` ` ` ` ` ` ` ` ` ` ` ` ` ` ` ",
") ) ) ) ) ) ) ) ) ) _ _ _ _ _ _ _ _ _ _ _ _ _ _ _ _ _ _ _ _ _ _ _ ` ` | ` ( $.3 < +._ _ ` ` ` ` ` ` ` ` ` ` ` ` ` ` ` ` ` ` ` ` ",
") ) ) ) ) ) ) ) ) ) _ _ _ _ _ _ _ ` _ _ _ _ ` _ _ _ _ _ _ _ _ _ ` O.R R O.+.O.0 < S S S P R o.1.$.8.8.8.8.8.} P } 8.8.` ` ` ` ` ",
") ) ) ) ) ) ) ) ) ) ) ) ) ) _ ) _ ` _ _ _ _ _ _ _ _ _ _ _ _ _ ` L x 7 2 - % % % o 2 2 2 % $     # # % % %   # #   # f ` ` ` ` ` ",
") ) ) ) ) ) ) ) ) ) ) ) ) ) ) ) ) _ _ _ _ _ _ _ _ _ _ _ _ _ _ ..V u * X @ @ $ $ @ $ % % - 2 2 2 2 1 1 < % 1 2 6 8 q r _ ..` ` ` ",
"~ ~ ~ ) ) ) ) ) ) ) ) ) ) ) ) _ ) _ ) ) ) ) ) _ _ _ _ _ _ _ _ _ _ R R ' } } } X.O.O.O.O.-.} o.i.-.;.8.i.8.8.8.8.;.g.< u $.` ` ` ",
"~ ~ ~ ) ) ) ) ) ) ) ) ) ) ) ) ) ) _ _ _ ) ) ) _ _ _ _ _ _ _ _ _ R > V ` _ ` ` ` | ` ` | +.z 2 +./ _ _ _ _ _ _ _ _ -.* 2 ;.` ` ` ",
"~ ~ ~ ) ) ) ) ) ) ) ) ) ) ) ) ) ) ) ) ) ) ) ) _ _ _ _ _ _ _ _ _ ) * H ` ) _ _ _ _ _ _ _ ..b < | _ _ _ _ _ _ _ _ ` -.< - -.` ` ` ",
"~ ~ ~ ) ) ) ) ) ) ) ) ) ) ) ) ) ) _ ) ) ) ) ) _ _ _ _ _ _ _ _ _ _ * H ` ) _ _ _ _ _ _ _ ..H % .._ _ _ _ _ _ _ _ _ -.1 * -.` ` ` ",
"~ ~ ~ ~ ~ ~ ~ ~ ) ) ) ) ) ) ) ) ) ) ) ) ) ) ) ) _ _ _ _ _ _ _ _ _ * V ` ) _ _ _ _ _ _ _ ..H $ .._ ` _ _ _ _ _ _ ) -.< * -.` ` ` ",
"^ I I ~ ~ ~ ~ ~ ~ ~ ) ) ) ) ) ) ) ) ) ) ) ) ) ) _ ) ) ) ) ) ) _ _ * N ` ) ) _ _ _ _ _ _ ` H < _ _ _ _ _ _ _ _ _ _ -.1 * -._ ) ) ",
") I I ^ ^ ^ ^ ^ ^ ^ ) ) ) ) ) ) ) ) ) ) ) ) ) ) ) ) ) ) ) ) _ _ ` * V ` ) ) _ _ _ _ _ _ | J 2 I _ ) ) _ | | ......t.2 2 t...` ) ",
"c ^ ^ I I I I I I I I I I I I I R ) _ _ _ ) ) ) ) _ _ _ ) _ | +.o.% G O.) ) _ _ _ _ _ _ | H 1 P _ ) _ ) V S F F F K 2 6 R F L ` ",
"V ^ ^ I I I I I I I I I I I I I R R _ _ _ ) I I ) _ _ _ _ _ b d s * a k L ` _ _ _ _ _ _ _ I S _ _ ) ` _ * . + @ + + # # . & f O.",
") I I I I I I I I I I I I I I I I ^ ) ) ) ^ I I ^ _ _ _ _ _ 4 $ * * @ 2 H | ) ) ) ) ) _ _ _ _ ^ ) ) _ ) H S S S N N K S S I _ ` ",
"I I I I I I I I I I I I I I I I I ^ ) ) _ ^ I I ^ _ _ _ _ _ _ _ R W W } _ ^ ) ) ) ) ) ) _ _ _ _ ) ) ) ) ` | | | ` | ..+.| O.| _ ",
"I I I I I I I I I I I I I I I I I I ) ) ) I I I I ) R ) ) ) _ _ _ ) ) _ ) ^ ) ) ) ) ) ) _ _ _ _ ) ) ) ) ) ) _ _ _ ` _ _ } } } _ ",
"I I I I I I I I I I I I I I I I I I I I I I I I I I I ^ ^ ^ ^ ^ ^ ^ ) ) _ _ ) ) ) ) ) ) _ _ _ _ ) ) ) ) ) ) ) _ ` ` ` ` ` ` } ` "
};
