/* XPM */
static char *c026158f6f2d43a0b183fd5b2a46c73d5MemVWyEF6ujDnW3[] = {
/* columns rows colors chars-per-pixel */
"64 64 255 2 ",
"   c #010101",
".  c #06080A",
"X  c #0B0C0C",
"o  c #0E100E",
"O  c #0C0E10",
"+  c #0D1515",
"@  c #121413",
"#  c #151916",
"$  c #151C1B",
"%  c #1A1D1B",
"&  c #201B12",
"*  c #1B211D",
"=  c #24261B",
"-  c #382C16",
";  c #0C1923",
":  c #161D23",
">  c #1B2626",
",  c #182833",
"<  c #262925",
"1  c #242C2B",
"2  c #2A2E2F",
"3  c #2A322C",
"4  c #33352B",
"5  c #2B3333",
"6  c #283537",
"7  c #343A38",
"8  c #401F13",
"9  c #4F2F17",
"0  c #583718",
"q  c #643B15",
"w  c #4A392C",
"e  c #5B3C23",
"r  c #653C25",
"t  c #2F5C23",
"y  c #38433C",
"u  c #6D461C",
"i  c #544E2D",
"p  c #46463A",
"a  c #57483A",
"s  c #6A492A",
"d  c #754B27",
"f  c #6B562B",
"g  c #78552A",
"h  c #614335",
"j  c #685635",
"k  c #785B36",
"l  c #54742E",
"z  c #686B32",
"x  c #796737",
"c  c #677934",
"v  c #787B38",
"b  c #2B3C43",
"n  c #333C42",
"m  c #3C4541",
"M  c #394748",
"N  c #394C52",
"B  c #395769",
"V  c #464A46",
"C  c #524C45",
"Z  c #48544B",
"A  c #55564B",
"S  c #454D55",
"D  c #4A5858",
"F  c #565957",
"G  c #675A46",
"H  c #68594B",
"J  c #516255",
"K  c #59645A",
"L  c #65665A",
"P  c #726D51",
"I  c #535C63",
"U  c #5A6866",
"Y  c #556D70",
"T  c #636C63",
"R  c #676967",
"E  c #6A6C6D",
"W  c #69756A",
"Q  c #75766A",
"!  c #6A7977",
"~  c #767B76",
"^  c #A9383C",
"/  c #885219",
"(  c #885A27",
")  c #885B30",
"_  c #A94E30",
"`  c #8B642C",
"'  c #99652A",
"]  c #9E7C2D",
"[  c #866A36",
"{  c #986A34",
"}  c #8A7639",
"|  c #97783A",
" . c #AA722F",
".. c #A77636",
"X. c #C27D33",
"o. c #815A40",
"O. c #897745",
"+. c #8B734E",
"@. c #A8734B",
"#. c #827E71",
"$. c #CC494C",
"%. c #5D8630",
"&. c #638237",
"*. c #7A873A",
"=. c #728842",
"-. c #74846F",
";. c #6C8278",
":. c #7B837A",
">. c #788578",
",. c #86853A",
"<. c #9C863D",
"1. c #8D933C",
"2. c #A8893B",
"3. c #B9853A",
"4. c #B3983D",
"5. c #C58A3C",
"6. c #8D8D4A",
"7. c #988744",
"8. c #9B9444",
"9. c #A68945",
"0. c #B68B48",
"q. c #AA9748",
"w. c #B89847",
"e. c #B19456",
"r. c #9EA14D",
"t. c #BAA54B",
"y. c #B4A654",
"u. c #84846C",
"i. c #878779",
"p. c #8F8D7B",
"a. c #97967D",
"s. c #AA9568",
"d. c #B4A46A",
"f. c #CF924F",
"g. c #C69A48",
"h. c #C88A54",
"j. c #D99559",
"k. c #E39A5B",
"l. c #C3A34C",
"z. c #C8A74B",
"x. c #D4AB4C",
"c. c #D8B34D",
"v. c #C8A853",
"b. c #D6AC53",
"n. c #CAB552",
"m. c #DAB756",
"M. c #E9B752",
"N. c #E3BC54",
"B. c #E7BA58",
"V. c #D39B67",
"C. c #E39D61",
"Z. c #E39973",
"A. c #CCB36C",
"S. c #EAA465",
"D. c #F2AF69",
"F. c #D7C55C",
"G. c #EAC35A",
"H. c #F6C959",
"J. c #FAD25E",
"K. c #D5C363",
"L. c #ECCD6A",
"P. c #F9CA63",
"I. c #FDD767",
"U. c #FFE36C",
"Y. c #FFE96B",
"T. c #FDEA73",
"R. c #FFFA77",
"E. c #5C7681",
"W. c #777982",
"Q. c #788985",
"!. c #7B9389",
"~. c #768E91",
"^. c #888B85",
"/. c #8D8E8B",
"(. c #889587",
"). c #8C948C",
"_. c #949484",
"`. c #97988B",
"'. c #899A95",
"]. c #959C96",
"[. c #9C9C93",
"{. c #A19D8B",
"}. c #A29E93",
"|. c #93A595",
" X c #9AA598",
".X c #A5A38C",
"XX c #A7A798",
"oX c #B0B19C",
"OX c #8F9CA3",
"+X c #9AAAA6",
"@X c #97ADAB",
"#X c #A7ABA4",
"$X c #ABB2A5",
"%X c #A7B4A9",
"&X c #ACBAAC",
"*X c #B7B7A7",
"=X c #B4BAAD",
"-X c #AAB8B6",
";X c #B4BCB3",
":X c #BABDB4",
">X c #B6BBB8",
",X c #C2BFAF",
"<X c #BEC285",
"1X c #B4C1B0",
"2X c #BCC3B4",
"3X c #B4C2BB",
"4X c #B8C6B8",
"5X c #BCC4BB",
"6X c #DDC889",
"7X c #FEFE87",
"8X c #F8F88C",
"9X c #C3C6B7",
"0X c #C4CABC",
"qX c #CECFBA",
"wX c #CACCBC",
"eX c #B3BFC0",
"rX c #B7C5C5",
"tX c #BCCAC3",
"yX c #C3CCC3",
"uX c #C7CBC7",
"iX c #CBCDC3",
"pX c #CECDC8",
"aX c #CBD1C4",
"sX c #C7D3C8",
"dX c #CCD3CB",
"fX c #D2D6CB",
"gX c #D6D8C9",
"hX c #D4D9CC",
"jX c #CDD7D2",
"kX c #D4DBD2",
"lX c #D6DBD7",
"zX c #DADED4",
"xX c #E0DAD3",
"cX c #DDE2CE",
"vX c #DCE1D5",
"bX c #D7E3DB",
"nX c #DDE3DA",
"mX c #E2E3CD",
"MX c #E5E7D9",
"NX c #E3E6DC",
"BX c #E5E9DD",
"VX c #DDE6E3",
"CX c #E5EAE2",
"ZX c #E6EAE6",
"AX c #EBEDE4",
"SX c #EDF0E5",
"DX c #EDF1EB",
"FX c #EEF2EE",
"GX c #F3F5E9",
"HX c #F3F4EC",
"JX c #F4F6F1",
"KX c #F6F9F3",
"LX c #FBFCF4",
"PX c #F7FDFB",
"IX c #FEFFFC",
/* pixels */
"CXCXNXNXHXDXDXNXkXkX0XaXBX5X9XDXHXSXBXAXNXhXuX~ L L R R R R Q /.BXLXLXGXKXGX_.XX9XU M 5 J m 3 U W U ~.!.Z $ # 5 V Q.+XyX5X9X#X(.",
"hXBXNXNXbXkXCXNXzXnXhXzXAXaXaXHXHXHXBXAX:XR < C i.XX[.i.`.*X}.R V pXLXKXIXKXoX:X2XU b > M 7 1 E U Z Y U m 4 3 K ! W >.5X0X:X X:.",
"#XzXNXdX|.(.yXnXCXCXAXHXHXAXDXHXHXHXHXE 2 C ~ [.XX`.Q p R ~ i.xX_.:XLXKXIXKXvXMX=XW 7 : 5 5 > E D 1 6 y Z :.W 5XuXK V #X4X:X].W ",
"i.aXkX XV m +XnXCXZXHXIXLXIXIXKXHXKX/.R p.p.[.`.XXXX[.#.`.[.}.pXXX0XCXsX;XkXAXzX;X[.T Z R U 7 I m * y T (.iX;XKXSX:.K ]. X=X'.:.",
"~ XX%XK @ X ! sXsXjXvXAXKXIXIXLXKX$X_.oX`.[.}.^.R S F L F R W.].[.;XaX(.Z (.hX9XiXhX&X#XuX&X! F Z V p.iXNXHXJXLXzX0X=Xi.>.2X XXX",
"! T U 1 @   m '.'.@X%X#XzXHXIXIX#XXXXX_.XX~ V a x q.e.7.7.[ s H A 4X2X-.. y 5XaXBXJXAXSXLXAX%X:.(.(.wXIXIXIXIXCXaXLXHXT i.fX5XyX",
"U 1 1 > 6 X % D U '.'.:.4XdXBX:X*XXX}.[.D p <.J.I.m.,.c =.=.=.y.O.iX9X_.< > %XkXCXAXAXHXLXHXdX=XfXfXNXHXDXAXDX;X&XAXbXV u.yXyX5X",
"y   $ 7 N m 7 Z ! &X3X#X&X]./.`.*XXX[.C i n.7XB.&.l z t.z.q.v l P ZXzXwX/.K Q.-X&XtX%X3XlXNXfXfXGXJXNXrX%X X'.W >.).~ # p :.'.'.",
"1 $ m W W ^.~ T |.aXhXfX#XW F XX_.#X7 w.m.m.U.c l &.B.Y.I.I.P.4.G LXJXKXHX9X>.!.U !.;.'.tXfXaXkXNXCXyXQ.D y 1 1 7 1 +   % y I U ",
"A T ^.&X#XsX=X-.XX$X#X*X_.K *XR /.D | Y.*.8.q.c b.6.y.I.m.m.I.H.+.LXIXIXIXLX=XQ.> Z '.@XdXzXvXNXaX&X).I $       X     # V m Z D ",
" X=X2XdX9XuX&XW Q.-.-._.a._.p.Q D [ R.m.c c z b.T.1.,.T.I.B.I.G.u.BXAXSXvXDXCX Xy F uXnXZXHXHXSX0X`.K M $ # % * > # % F `.~ U T ",
"aXhX0X2X[.~ W V D L (.$X~ *X_.U x Y.T.8.v.8.y.0.g.q.n.G.w.G.U.I.i.2X%X+X'.@XnXfX#X=XJXLXKXLXKXHXnX=XJ 7 K ^.^.~ ~ W W #X1X`.>.-.",
"BXhXXX].:.V V < V :.9XvX[.oX/.P G.r.P.q.m.t.9.[ I.Y.0.a w G y.9.L >.J J N N %XZXHXJXLXIXIXIXIXKXJXAX^.F  XAXBX4XaXwX0XNX4X).W K ",
"SXkX~ (.#X:.L p Q ;XvX).,XXXF z.6.t 6.7.L.v.[ v.T.[ L X V V p - Z y 3 1 + + ! kXbXbXbXDXPXIXLXDXZXHXaX^.+XGXSX4XnXJXGXBX&X~ V 1 ",
"AX0X7 :.sXwX.Xi.=XnXaX_.9XE 0.n.z B.l i q.q.0.I.w.E &X      # n V Z F 7 7 7 W  X X|. X3XtXdXyX&X3XsXyX].W [.).~ =XpX:X`.~ D 1 1 ",
"AX$X@ Q.sXBXgXwXMXnX].*X[.C I.8.t.I.6.7.7.b.g.I.O.AXT     = A _.#X;X:X-. X$X XQ -.-.W >.U E U K ~.@XQ.>.7 5 7 m ~ ^.K 2 5 n 6 U ",
"CX&Xm OX-XVXkXvXHXBX_.:XS 9.R.q.m.P.8.G.T.b.w.I._.].< 7 < T XXgXSXIXLX1XAXLXcX(.].(.'.).> O * A OX@X>.).F 7 V K ~ >.Z < > : 6 !.",
"nXhX#XrX@XlX4X3XzXnX[./.a Y.T.w.m.I.6.n.R.w.b.G.>.V 4 i.K !.%XhXhXLXLXcXLXIXLXzXzXzXzXdX3   = .XkXlXdXlXyX=X:XyX0X:X#X^.K * 6 Q.",
"nXAXFXlX-XjX1X+X+X^.*XE 9.R.m.l G.U.z ,.T.0.B.m.Q A Q .X:.;.;.sX1XaXGXGXLXIXIXIXIXLXfXzXQ A Q MXIXIXIXIXIXIXIXIXLXGXHXzX&XR T ;.",
"dXHXKXbXtXjX4X+XY ^.#XP b.I.v t 8.v.v z O.{ I.t.-.[.$X{.XXD m dX4XXXHXLXLXLXLXIXJXCX^.XXpXpXzXIXIXIXIXIXIXIXIXIXIXLXIXLXCXfXyX'.",
"].JXkXnXhX5X%X'.D gXW.y.Y.} } v.i 3 m.m.f | I.9.p.wXwXXX5XW Z 4XsX$XHXnXkXNXhXzXhXfXL i.PXIXIXIXIXIXIXIXLXIXIXIXIXIXIXIXIXIXKX5X",
"F lX%XsXyX X>.Q.~ uX#.m.P.i m.I.w.q.{ 9.v.g.G.O.u.=X9X9XzXoX_.+XjX3XhX3X%XaX2X9X9XfXp. XIXIXIXLXLXLXIXIXIXIXIXKXLXLXIXIXLXIXJXDX",
"1 ].'.'.'.W W '.*XOXd.z.l.0.v.g.g.G. ...x ..M.7.A `.&XgXBXqX1X(.&X X(.=X%XaXaXfXfXNX9XaXHXZXkXyX+X>XHXIXIXKXIXCXVXbXAXZXwXdXNXLX",
"> D Q.D D U Q.[.wXE m.v.v.G.( { g.v.5.3.f k { A.3 ! #XwXBX2X&X>.-.-.J #XiXBXHXJXJXJXDXHXHXzX4X+XK W 2XzXdX0XfXuXrXrXjX3X(.#XdXdX",
"M N U * 3 ^.:X.X>XH H.I.G.P.w...0.} k s ) d e e.V ;.%X%XhX).|.:.Z P v.L.BXJXIXIXIXIXLXIXLXAXdX5X:.A U W T F K %X;XrX3X~ W $XyX(.",
"!.! K < 7 #X^.qX/.+.I.I.G.m.P.B...s s s d u u g 6.(.4X|.&XW W ~ A y.G.Y.d.LXIXIXIXLXHXIXHXDXAXHXfX>.6 O   o % &XyXjX%XK :.aX%XD ",
"uX;Xi.R Q (.~ aXQ z.P.G.m.m.H.m.k s u u 9 0 ( q v.8X<X(.>.D m H v.R.l.b.R.a.KXLXIX=XXXJX0XdXAXIXLXaXN     4 F zXNXNX;X).5XzX! y ",
"SXCX1X2X$X>.p.#XP H.B.m.m.m.G.t.w 0 ..` 0 ( 3.u g 7X7X8Xs.P 6.L.U.I.l.w.T.I.s.NXnXf ` XX X$XmXKXPXnXU   % p.9XfXkXAXfXfXAXvXU K ",
"AXSXvXCXhX).,X^.7.J.b.m.m.G.q.h e ) f.'  .B.0.` r K.7X7XR.F.T.R.G.P.g.w.U.T.7X8X6.g ] O.Q ~ }.wXyX^.7 & L ,XqXQ ^.pXiXiXwX{.#.R ",
"nXNXSXDXSXi.aXQ 2.H.B.G.H.m.) 9 g f.5.' g.d.d ( s [ A.L.7X7X7XR.I.I.q.9.U.U.T.7Xv.} t.} h h.h.f.f.j.j.j.f.h.h.h.j.j.f.k.S. .) G ",
"zXnXAXSXNX_.iXa z.G.v.9.7.[ ^ _ u ` { ) { d 9 q s 0 8 9 k O.r.K.I.U.} | Y.R.7X7Xw.<.K.q.@.S.k.C.S.D.C.j.j.j.k.j.j.k.j.@.) P A.~ ",
"CXnXCXkX^.L F - 2.3.{ ` (  .$.D.L.A.../ / g.6X6Xf. .' ' ( / d g | 9.j i 7.d.y.y.x 9.B.7.w C.S.S.S.@.h.D.D.S.f.C.S.S.C.e.< s.V.W ",
"CXbXzX&XF L F - s e ) {  . .$.Z.6XA.5. ./ v.6XA.x.3..... .' ( d ` } i w f [ x g x 2.z.9.+.j.k.k.j.h.j.S.S.@.@.h.j.j.k.D.o.s.p.'.",
"&X%X XT 5 ^.9XH 2.q.7.7.| f ^ _ 0 9 g ) ` ` q q s s r e s f [ q.m.H.} | G.G.N.N.0.| g.} ) j.f.j.S.D.S.k.j.h.h.h.j.j.k.k.G G Q.&X",
"F F m * . L 9XR 2.I.G.G.H.v.r r g ..x...s g ` g d s [ 9.w.b.N.N.x.N.<.9.N.x.z.l.w.| 4.[ h @.@.0.j.k.j.k.j.j.j.h.f.j.j.j.G Q.'.-X",
"> > + + * y p.W.k H.b.b.m.G.w.i 0 g.P.5.' ( { { s | m.c.c.c.l.x.N.c.| 9.x.w.G.2.f } 4.[ G H G H H G a a a a a C A H H G /.rX+XrX",
"$ @ $ y A F L ].G x.N.m.v.l.J.q.9 [ {  .3.( ( ( ( z.N.c.x.z.v.w.9.c.9.w.2.z.9.].E ` ] G (.$X$X:X0X`.7 L u.~ > > M Y '.Y ~.rX'.3X",
"4 = = T a.(.T oXF 9.P.m.b.b.N.b.f e d `  .` ( d ..v.d.oX9XXX`..Xx x.l.l.c.P ! Q.~.V V ! sXBXdXdXLXhX:.XXqX4XK o < ).-XQ.Y OX! ].",
"P a p u.*XoXL _.F O.J.m.x.m.J.z...0 e s u g ( d } XX5XkXzXyXQ.-XyXs.m.G.9.>.5 2 n $ Y jXDXKXtX;XIXDXfXNXJXDX>X< 4 9XvX3XM I D K ",
"XXa.i.u.9XqXP i.R G N.N.c.m.q.[ ..k 9 e s d d ` u.aXyXzX3XkX].;.+XAXt.m.$X=X=   X 2 >XPXIXKXyX0XKXHXHXHXIXLXZXK Q gXMXkX> > 6 2 ",
"hXqX0Xp.aXvXa.F #.A l.J.G.} 0 ( 3.q.{ { i s ( 2.:XkXnXCX&XNXzXK Q.CX[.[.AXGXV     V kXJXKXJXnXAXDXDXDXAXKXHXDX+X4XaX&X%X>   : + ",
"AXAXnX$XkXSXqX< i.I +.J.l.g g.3.g.N.X. .k { 5.7.iXCXAXSXaXgXKX).-.kXNX5XzXLX>.    4 Q BXJXHXHXLXNXDXDXDXHXHXHXbXjX4XK D 6   # + ",
"CXAXNXfXBXHXZX# Q _.F w.z.s m.N.9.9.' ..l.' 3.e.zXAXCXHXHXaXHXgX(.$XfX^.XXkX(.  @ = < vXKXJXLXKXnXHXKXAXkXCXGXAXsX&X6 > I X 4 V ",
"BXBXNXCXAXSXtXX 4 XXR x x.x v B.z t v.v.z ( c.e.BXNXMXGXIXzXzXKX=XW wXT >.(.K   7 Z U CXLXIXLXAXCXLXIXkX@XdXBXCXsX5XJ D ~.X T  X",
"BXnXvXNXNXbX;.  X i.`.L ..B.6.l ,.7.v z f { N.q.BXzXvX=XhXMX9XAXaXL *XA ! U >   Z ~.rXPXKXIXLXAXHXLXHX5XOXyXvXkXsXkX+X~.Q.5  XNX",
"nXvXvXhXuXrX3   p L XX~ } J.v.l z.M.i *.B.{ x.9.dXMXvXF ^.hX#XdX0XXX(.y !.Y O   n @XVXPXzXCXLXGXLXKXzX4XtXjXzXdXfXkXdX'.D Q.4XKX",
"zXsXbXtX'.Q.  % i.).`.`.+.c.B.7.l.B.*.t.P.| 0.w.$XGXMXA ! ;X#X5XiXMX>.D -X! X   > ~.-X>X+X&XdXlXAXDXyXyXDXVXsX5XfXfXVXY 7 aXdXDX",
"tX%XtX-XV 1   p 5XkXi..X~ 9.H.7.t.N.1.z.P.w.9.c._.HXAX`. X|.&XkXzXAX>.Q.rXK     . 6 V D I Y ! OXrXnX5XdXLXCX-X-XdXdXlX5 y AXzXAX",
").! ~.! .   + i.NXSX$X.X_.H c.8.q.B.,.,.q.z.| G.O.CXnX$XXX^.;XAXHXvX|.-X+X5           . 6 b 6 Y ~.tX>XfXHXlX@X-XdXyX+XX W HXzXBX",
"S M b >     m 5XAXHXKX`.oXR [ t.6.b.&.l ,.q.9.l.[ ! &XQ T >. XW.;XyX#X%XD X             > > ; B Y @X-XfXNXrX@XsXjXtXI . XXSXzXMX",
"b , , 3 4 Z Q.zXCXAXHXi..X.XF | 6.l c v z.8.| 2.l.x F 3 7 Q.Q x i. X(.E $               # > 6 B ! 1XyXkXyXrXrXVXCXjX> . 0XhXzXvX",
"N 6 N T >.%X5XzXMXMXBXiX_.*X).a <.*.z.q.l.q.} | G.m.O.C 4 p w.N.L E Z %                   : M b ! 3XkXlX&XuXZXDXAXVX+ X sX=XzXdX",
"N b F K |.bXlXyX0XhXNXMX^.,XoX! j H.G.7.w.8.8.{ 9.t.l.g.[ | c.c.A 2 % O       X X           > + Z (.>XbX3XjXIXZXlXjX. < bX=XkXtX",
"1 5 m < ).lXjX&X$XwXMXBX*X_.*XXXF f H.t.c z z w.c.v v M.c.c.x.c.a   . , # X   # @ X       X # + > 5 ! 3X3X-XVXrX@XOX. 7 VXaXhX4X",
"  @ % + '.kXyX&X$XwXMXMXwXA _.*X*Xn f H.l v O.,.b.z 1.b.l.x.c.g.a   . , 5 7 % % X       : U U U n   > U ! Y '.~.I S   < tXCXaXtX",
". : < N @XiX2X2X:XwXgXwX9X:X3 L {.XX7 } q.q.M.c l z g.N.x.N.f.} i 5 : > D ~ 7 @ .       6 +X-XeXY + @ 3 n 6 M N ; .   . (.lX4XdX",
"p U ^.+X%X1X9XaX9X0X$XXX0XzX#X< R *X[.V j t.H.g.%.l } w.w.w.,.%.i /.D m :.+XF .         6 Q.@X>XU U R E W U , :         m ].%XbX",
"`.;XhXCX&X=XaXzXiX5X(.|.fXNXAXT L .X.XXXV i 7.c.x.q.*.c c c *.4.j >X).i.$X0X~       . X $ 5 D ! 6 Q.4XiXdXrXD 3 X       o Z !.-X",
"fXvXsXHXsXyXhXNXhXsX XXXnXBXgX$XF *X{.{.{.V V G [ 9.| x i j s j p OX=XwXMXBX#X# .   o o .   $ 1 X Z  XjXKXFX].Q L 7 #     @ 7 F ",
"CXsX^.wXHXCXnXBXvXvXyX5XdX9X`.Q i.^.XX{..Xp.Q Q I F A H A F F R Q ! wXMXBXCXaXA X   X X         @ o Z '.jXJXNX9X*Xi.F 5         ",
"jXOXD  XIXKXCXnXzXNXnX5X X~ V 7 E BX[.XX*X_.a..X.X_.p.p.p.u.p.a.u.~ gXhX>X>XBXXX%   X X         y @ # S ^.kXJXmXMXfX:X].        ",
"/.E.N W dXuX;X#XXX$X;X'.T V 7 5 D 5XkX`..XXX.Xi.u.a.p.u.#.C A i.u.[.hX9X].%XNX0XZ y 7 % X X X X K <   $ 7 ^.>X5XBXJXKXFX7 % 2 < ",
"6 Y ! D ! T Z V y V D S 7 N ! I M ~ ].'.zX`.A p C `..X`.a.Q #.i.~ XXvX9X=XdXuX$X].#X).p # % = # p 3   X X 3 D Q.dXZXFXIX+XW ].^.",
"+ Y ~.D D 7 * $ @ # < 2 2 S OX! M F Q.>.lXiX).R V V R T C p p ! ! $XnXiX0XNX:X].;XkX=XF * < < * y 3 X @   X > Y rXlXVXKXdX].uX;X"
};
